<mxfile host="app.diagrams.net" modified="2023-03-09T08:20:58.221Z" agent="5.0 (Macintosh; Intel Mac OS X 10_15_7) AppleWebKit/605.1.15 (KHTML, like Gecko) Version/16.1 Safari/605.1.15" etag="PfaG51wvroeZ4ItC6jIe" version="21.0.2" type="github">
  <diagram name="第 1 页" id="VFazVJUxJogGp5_EuSBo">
    <mxGraphModel dx="3832" dy="2627" grid="1" gridSize="10" guides="1" tooltips="1" connect="1" arrows="1" fold="1" page="1" pageScale="1" pageWidth="827" pageHeight="1169" background="none" math="0" shadow="0">
      <root>
        <mxCell id="0" />
        <mxCell id="1" parent="0" />
        <mxCell id="Jm2Hufen4dtFJxHupJbC-2" value="&lt;font style=&quot;font-size: 12px;&quot;&gt;同步&lt;/font&gt;" style="rounded=1;whiteSpace=wrap;html=1;" parent="1" vertex="1">
          <mxGeometry x="232.5" y="440" width="90" height="30" as="geometry" />
        </mxCell>
        <mxCell id="Jm2Hufen4dtFJxHupJbC-122" style="edgeStyle=orthogonalEdgeStyle;rounded=0;orthogonalLoop=1;jettySize=auto;html=1;" parent="1" source="Jm2Hufen4dtFJxHupJbC-3" target="Jm2Hufen4dtFJxHupJbC-119" edge="1">
          <mxGeometry relative="1" as="geometry" />
        </mxCell>
        <mxCell id="Jm2Hufen4dtFJxHupJbC-3" value="调用State接口&lt;br&gt;查询最新状态&lt;br&gt;合并" style="rounded=1;whiteSpace=wrap;html=1;" parent="1" vertex="1">
          <mxGeometry x="220" y="500" width="115" height="50" as="geometry" />
        </mxCell>
        <mxCell id="Jm2Hufen4dtFJxHupJbC-9" value="" style="endArrow=classic;html=1;rounded=0;exitX=0.5;exitY=1;exitDx=0;exitDy=0;entryX=0.5;entryY=0;entryDx=0;entryDy=0;" parent="1" source="Jm2Hufen4dtFJxHupJbC-2" target="Jm2Hufen4dtFJxHupJbC-3" edge="1">
          <mxGeometry width="50" height="50" relative="1" as="geometry">
            <mxPoint x="272.5" y="500" as="sourcePoint" />
            <mxPoint x="322.5" y="450" as="targetPoint" />
          </mxGeometry>
        </mxCell>
        <mxCell id="Jm2Hufen4dtFJxHupJbC-16" value="" style="rounded=0;whiteSpace=wrap;html=1;dashed=1;strokeWidth=3;strokeColor=default;fillColor=none;" parent="1" vertex="1">
          <mxGeometry x="870" y="200" width="590" height="380" as="geometry" />
        </mxCell>
        <mxCell id="Jm2Hufen4dtFJxHupJbC-17" value="State&lt;br&gt;逻辑" style="text;html=1;strokeColor=none;fillColor=none;align=center;verticalAlign=middle;whiteSpace=wrap;rounded=0;" parent="1" vertex="1">
          <mxGeometry x="870" y="200" width="60" height="30" as="geometry" />
        </mxCell>
        <mxCell id="Jm2Hufen4dtFJxHupJbC-25" style="edgeStyle=orthogonalEdgeStyle;rounded=0;orthogonalLoop=1;jettySize=auto;html=1;exitX=0.5;exitY=1;exitDx=0;exitDy=0;" parent="1" source="Jm2Hufen4dtFJxHupJbC-18" target="Jm2Hufen4dtFJxHupJbC-20" edge="1">
          <mxGeometry relative="1" as="geometry" />
        </mxCell>
        <mxCell id="Jm2Hufen4dtFJxHupJbC-18" value="请求State接口" style="rounded=1;whiteSpace=wrap;html=1;" parent="1" vertex="1">
          <mxGeometry x="1017.5" y="240" width="115" height="30" as="geometry" />
        </mxCell>
        <mxCell id="Jm2Hufen4dtFJxHupJbC-19" value="&lt;p style=&quot;text-align: start;&quot; data-pm-slice=&quot;1 1 []&quot;&gt;/api/sync/state?data_type=reading&amp;amp;last_event_id=&amp;amp;last_event_at=&lt;/p&gt;" style="text;html=1;strokeColor=none;fillColor=none;align=center;verticalAlign=middle;whiteSpace=wrap;rounded=0;" parent="1" vertex="1">
          <mxGeometry x="920" y="200" width="360" height="30" as="geometry" />
        </mxCell>
        <mxCell id="Jm2Hufen4dtFJxHupJbC-54" style="edgeStyle=orthogonalEdgeStyle;rounded=0;orthogonalLoop=1;jettySize=auto;html=1;exitX=1;exitY=0.5;exitDx=0;exitDy=0;" parent="1" source="Jm2Hufen4dtFJxHupJbC-20" target="Jm2Hufen4dtFJxHupJbC-53" edge="1">
          <mxGeometry relative="1" as="geometry" />
        </mxCell>
        <mxCell id="Jm2Hufen4dtFJxHupJbC-84" style="edgeStyle=orthogonalEdgeStyle;rounded=0;orthogonalLoop=1;jettySize=auto;html=1;entryX=0.511;entryY=0.667;entryDx=0;entryDy=0;entryPerimeter=0;" parent="1" source="Jm2Hufen4dtFJxHupJbC-20" target="Jm2Hufen4dtFJxHupJbC-21" edge="1">
          <mxGeometry relative="1" as="geometry" />
        </mxCell>
        <mxCell id="Jm2Hufen4dtFJxHupJbC-20" value="last event id" style="shape=process;whiteSpace=wrap;html=1;backgroundOutline=1;" parent="1" vertex="1">
          <mxGeometry x="1018.75" y="300" width="112.5" height="30" as="geometry" />
        </mxCell>
        <mxCell id="Jm2Hufen4dtFJxHupJbC-83" style="edgeStyle=orthogonalEdgeStyle;rounded=0;orthogonalLoop=1;jettySize=auto;html=1;exitX=0.5;exitY=1;exitDx=0;exitDy=0;entryX=0.502;entryY=0.667;entryDx=0;entryDy=0;entryPerimeter=0;" parent="1" source="Jm2Hufen4dtFJxHupJbC-21" target="Jm2Hufen4dtFJxHupJbC-22" edge="1">
          <mxGeometry relative="1" as="geometry" />
        </mxCell>
        <mxCell id="Jm2Hufen4dtFJxHupJbC-21" value="last event at" style="shape=process;whiteSpace=wrap;html=1;backgroundOutline=1;" parent="1" vertex="1">
          <mxGeometry x="1017.5" y="380" width="112.5" height="30" as="geometry" />
        </mxCell>
        <mxCell id="Jm2Hufen4dtFJxHupJbC-32" style="edgeStyle=orthogonalEdgeStyle;rounded=0;orthogonalLoop=1;jettySize=auto;html=1;exitX=0.5;exitY=1;exitDx=0;exitDy=0;" parent="1" source="Jm2Hufen4dtFJxHupJbC-22" target="Jm2Hufen4dtFJxHupJbC-23" edge="1">
          <mxGeometry relative="1" as="geometry" />
        </mxCell>
        <mxCell id="Jm2Hufen4dtFJxHupJbC-65" style="edgeStyle=orthogonalEdgeStyle;rounded=0;orthogonalLoop=1;jettySize=auto;html=1;" parent="1" source="Jm2Hufen4dtFJxHupJbC-22" target="Jm2Hufen4dtFJxHupJbC-38" edge="1">
          <mxGeometry relative="1" as="geometry" />
        </mxCell>
        <mxCell id="Jm2Hufen4dtFJxHupJbC-22" value="remaining count" style="shape=process;whiteSpace=wrap;html=1;backgroundOutline=1;" parent="1" vertex="1">
          <mxGeometry x="1017.5" y="460" width="112.5" height="30" as="geometry" />
        </mxCell>
        <mxCell id="Jm2Hufen4dtFJxHupJbC-33" style="edgeStyle=orthogonalEdgeStyle;rounded=0;orthogonalLoop=1;jettySize=auto;html=1;exitX=0.5;exitY=1;exitDx=0;exitDy=0;" parent="1" source="Jm2Hufen4dtFJxHupJbC-23" target="Jm2Hufen4dtFJxHupJbC-24" edge="1">
          <mxGeometry relative="1" as="geometry" />
        </mxCell>
        <mxCell id="Jm2Hufen4dtFJxHupJbC-69" style="edgeStyle=orthogonalEdgeStyle;rounded=0;orthogonalLoop=1;jettySize=auto;html=1;" parent="1" source="Jm2Hufen4dtFJxHupJbC-23" target="Jm2Hufen4dtFJxHupJbC-36" edge="1">
          <mxGeometry relative="1" as="geometry" />
        </mxCell>
        <mxCell id="Jm2Hufen4dtFJxHupJbC-23" value="sync data version" style="shape=process;whiteSpace=wrap;html=1;backgroundOutline=1;" parent="1" vertex="1">
          <mxGeometry x="1017.5" y="500" width="112.5" height="30" as="geometry" />
        </mxCell>
        <mxCell id="Jm2Hufen4dtFJxHupJbC-74" style="edgeStyle=orthogonalEdgeStyle;rounded=0;orthogonalLoop=1;jettySize=auto;html=1;exitX=1;exitY=0.5;exitDx=0;exitDy=0;entryX=0;entryY=0.5;entryDx=0;entryDy=0;" parent="1" source="Jm2Hufen4dtFJxHupJbC-24" target="Jm2Hufen4dtFJxHupJbC-72" edge="1">
          <mxGeometry relative="1" as="geometry" />
        </mxCell>
        <mxCell id="Jm2Hufen4dtFJxHupJbC-24" value="full sync at" style="shape=process;whiteSpace=wrap;html=1;backgroundOutline=1;" parent="1" vertex="1">
          <mxGeometry x="1017.5" y="540" width="112.5" height="30" as="geometry" />
        </mxCell>
        <mxCell id="Jm2Hufen4dtFJxHupJbC-70" style="edgeStyle=orthogonalEdgeStyle;rounded=0;orthogonalLoop=1;jettySize=auto;html=1;entryX=0;entryY=0.5;entryDx=0;entryDy=0;fillColor=#f8cecc;strokeColor=#b85450;" parent="1" source="Jm2Hufen4dtFJxHupJbC-36" target="Jm2Hufen4dtFJxHupJbC-58" edge="1">
          <mxGeometry relative="1" as="geometry">
            <Array as="points">
              <mxPoint x="1280" y="515" />
              <mxPoint x="1280" y="278" />
            </Array>
          </mxGeometry>
        </mxCell>
        <mxCell id="Jm2Hufen4dtFJxHupJbC-71" style="edgeStyle=orthogonalEdgeStyle;rounded=0;orthogonalLoop=1;jettySize=auto;html=1;exitX=1;exitY=0.5;exitDx=0;exitDy=0;entryX=0;entryY=0.5;entryDx=0;entryDy=0;" parent="1" source="Jm2Hufen4dtFJxHupJbC-36" target="Jm2Hufen4dtFJxHupJbC-59" edge="1">
          <mxGeometry relative="1" as="geometry">
            <Array as="points">
              <mxPoint x="1280" y="515" />
              <mxPoint x="1280" y="528" />
            </Array>
          </mxGeometry>
        </mxCell>
        <mxCell id="Jm2Hufen4dtFJxHupJbC-36" value="与本地比较" style="rhombus;whiteSpace=wrap;html=1;" parent="1" vertex="1">
          <mxGeometry x="1150" y="500" width="100" height="30" as="geometry" />
        </mxCell>
        <mxCell id="Jm2Hufen4dtFJxHupJbC-63" style="edgeStyle=orthogonalEdgeStyle;rounded=0;orthogonalLoop=1;jettySize=auto;html=1;entryX=0;entryY=0.5;entryDx=0;entryDy=0;fillColor=#f8cecc;strokeColor=#b85450;" parent="1" source="Jm2Hufen4dtFJxHupJbC-38" target="Jm2Hufen4dtFJxHupJbC-58" edge="1">
          <mxGeometry relative="1" as="geometry">
            <Array as="points">
              <mxPoint x="1290" y="475" />
              <mxPoint x="1290" y="278" />
            </Array>
          </mxGeometry>
        </mxCell>
        <mxCell id="Jm2Hufen4dtFJxHupJbC-64" style="edgeStyle=orthogonalEdgeStyle;rounded=0;orthogonalLoop=1;jettySize=auto;html=1;entryX=0;entryY=0.5;entryDx=0;entryDy=0;" parent="1" source="Jm2Hufen4dtFJxHupJbC-38" target="Jm2Hufen4dtFJxHupJbC-59" edge="1">
          <mxGeometry relative="1" as="geometry">
            <Array as="points">
              <mxPoint x="1290" y="475" />
              <mxPoint x="1290" y="528" />
            </Array>
          </mxGeometry>
        </mxCell>
        <mxCell id="Jm2Hufen4dtFJxHupJbC-38" value="100" style="rhombus;whiteSpace=wrap;html=1;" parent="1" vertex="1">
          <mxGeometry x="1150" y="460" width="100" height="30" as="geometry" />
        </mxCell>
        <mxCell id="Jm2Hufen4dtFJxHupJbC-60" style="edgeStyle=orthogonalEdgeStyle;rounded=0;orthogonalLoop=1;jettySize=auto;html=1;exitX=1;exitY=0.5;exitDx=0;exitDy=0;entryX=0;entryY=0.5;entryDx=0;entryDy=0;fillColor=#f8cecc;strokeColor=#b85450;" parent="1" source="Jm2Hufen4dtFJxHupJbC-53" target="Jm2Hufen4dtFJxHupJbC-58" edge="1">
          <mxGeometry relative="1" as="geometry" />
        </mxCell>
        <mxCell id="Jm2Hufen4dtFJxHupJbC-61" style="edgeStyle=orthogonalEdgeStyle;rounded=0;orthogonalLoop=1;jettySize=auto;html=1;entryX=0;entryY=0.5;entryDx=0;entryDy=0;" parent="1" source="Jm2Hufen4dtFJxHupJbC-53" target="Jm2Hufen4dtFJxHupJbC-59" edge="1">
          <mxGeometry relative="1" as="geometry" />
        </mxCell>
        <mxCell id="Jm2Hufen4dtFJxHupJbC-53" value="与本地比较" style="rhombus;whiteSpace=wrap;html=1;" parent="1" vertex="1">
          <mxGeometry x="1160" y="300" width="100" height="30" as="geometry" />
        </mxCell>
        <mxCell id="Jm2Hufen4dtFJxHupJbC-85" style="edgeStyle=orthogonalEdgeStyle;rounded=0;orthogonalLoop=1;jettySize=auto;html=1;" parent="1" source="Jm2Hufen4dtFJxHupJbC-58" target="Jm2Hufen4dtFJxHupJbC-88" edge="1">
          <mxGeometry relative="1" as="geometry">
            <mxPoint x="1530" y="277.5" as="targetPoint" />
          </mxGeometry>
        </mxCell>
        <mxCell id="Jm2Hufen4dtFJxHupJbC-58" value="完全同步" style="rounded=1;whiteSpace=wrap;html=1;" parent="1" vertex="1">
          <mxGeometry x="1350" y="260" width="100" height="35" as="geometry" />
        </mxCell>
        <mxCell id="Jm2Hufen4dtFJxHupJbC-86" style="edgeStyle=orthogonalEdgeStyle;rounded=0;orthogonalLoop=1;jettySize=auto;html=1;" parent="1" source="Jm2Hufen4dtFJxHupJbC-59" target="Jm2Hufen4dtFJxHupJbC-88" edge="1">
          <mxGeometry relative="1" as="geometry">
            <mxPoint x="1530" y="527.5000000000002" as="targetPoint" />
          </mxGeometry>
        </mxCell>
        <mxCell id="Jm2Hufen4dtFJxHupJbC-59" value="增量同步" style="rounded=1;whiteSpace=wrap;html=1;" parent="1" vertex="1">
          <mxGeometry x="1350" y="510" width="100" height="35" as="geometry" />
        </mxCell>
        <mxCell id="Jm2Hufen4dtFJxHupJbC-75" style="edgeStyle=orthogonalEdgeStyle;rounded=0;orthogonalLoop=1;jettySize=auto;html=1;exitX=1;exitY=0.5;exitDx=0;exitDy=0;entryX=0;entryY=0.5;entryDx=0;entryDy=0;fillColor=#f8cecc;strokeColor=#b85450;" parent="1" source="Jm2Hufen4dtFJxHupJbC-72" target="Jm2Hufen4dtFJxHupJbC-58" edge="1">
          <mxGeometry relative="1" as="geometry">
            <Array as="points">
              <mxPoint x="1270" y="555" />
              <mxPoint x="1270" y="278" />
            </Array>
          </mxGeometry>
        </mxCell>
        <mxCell id="Jm2Hufen4dtFJxHupJbC-76" style="edgeStyle=orthogonalEdgeStyle;rounded=0;orthogonalLoop=1;jettySize=auto;html=1;exitX=1;exitY=0.5;exitDx=0;exitDy=0;entryX=0;entryY=0.5;entryDx=0;entryDy=0;" parent="1" source="Jm2Hufen4dtFJxHupJbC-72" target="Jm2Hufen4dtFJxHupJbC-59" edge="1">
          <mxGeometry relative="1" as="geometry">
            <Array as="points">
              <mxPoint x="1270" y="555" />
              <mxPoint x="1270" y="528" />
            </Array>
          </mxGeometry>
        </mxCell>
        <mxCell id="Jm2Hufen4dtFJxHupJbC-72" value="与本地比较" style="rhombus;whiteSpace=wrap;html=1;" parent="1" vertex="1">
          <mxGeometry x="1150" y="540" width="100" height="30" as="geometry" />
        </mxCell>
        <mxCell id="Jm2Hufen4dtFJxHupJbC-77" value="&lt;font color=&quot;#ff9999&quot;&gt;&amp;lt;&lt;/font&gt;" style="text;html=1;strokeColor=none;fillColor=none;align=center;verticalAlign=middle;whiteSpace=wrap;rounded=0;" parent="1" vertex="1">
          <mxGeometry x="1230" y="530" width="60" height="30" as="geometry" />
        </mxCell>
        <mxCell id="Jm2Hufen4dtFJxHupJbC-80" value="&lt;font color=&quot;#ff9999&quot;&gt;&amp;gt;&lt;/font&gt;" style="text;html=1;strokeColor=none;fillColor=none;align=center;verticalAlign=middle;whiteSpace=wrap;rounded=0;" parent="1" vertex="1">
          <mxGeometry x="1230" y="490" width="60" height="30" as="geometry" />
        </mxCell>
        <mxCell id="Jm2Hufen4dtFJxHupJbC-81" value="&lt;font color=&quot;#ff9999&quot;&gt;&amp;gt;&lt;/font&gt;" style="text;html=1;strokeColor=none;fillColor=none;align=center;verticalAlign=middle;whiteSpace=wrap;rounded=0;" parent="1" vertex="1">
          <mxGeometry x="1230" y="450" width="60" height="30" as="geometry" />
        </mxCell>
        <mxCell id="Jm2Hufen4dtFJxHupJbC-82" value="&lt;font color=&quot;#ff9999&quot;&gt;&amp;lt;&lt;/font&gt;" style="text;html=1;strokeColor=none;fillColor=none;align=center;verticalAlign=middle;whiteSpace=wrap;rounded=0;" parent="1" vertex="1">
          <mxGeometry x="1230" y="290" width="60" height="30" as="geometry" />
        </mxCell>
        <mxCell id="Jm2Hufen4dtFJxHupJbC-88" value="出&lt;br&gt;&lt;br&gt;&lt;br&gt;&lt;br&gt;&lt;br&gt;&lt;br&gt;&lt;br&gt;口" style="rounded=1;whiteSpace=wrap;html=1;" parent="1" vertex="1">
          <mxGeometry x="1530" y="220" width="30" height="350" as="geometry" />
        </mxCell>
        <mxCell id="Jm2Hufen4dtFJxHupJbC-90" style="edgeStyle=orthogonalEdgeStyle;rounded=0;orthogonalLoop=1;jettySize=auto;html=1;entryX=0;entryY=0.5;entryDx=0;entryDy=0;" parent="1" source="Jm2Hufen4dtFJxHupJbC-89" target="Jm2Hufen4dtFJxHupJbC-18" edge="1">
          <mxGeometry relative="1" as="geometry" />
        </mxCell>
        <mxCell id="Jm2Hufen4dtFJxHupJbC-89" value="入&lt;br&gt;&lt;br&gt;&lt;br&gt;&lt;br&gt;&lt;br&gt;&lt;br&gt;口" style="rounded=1;whiteSpace=wrap;html=1;" parent="1" vertex="1">
          <mxGeometry x="790" y="210" width="30" height="350" as="geometry" />
        </mxCell>
        <mxCell id="Jm2Hufen4dtFJxHupJbC-93" value="" style="rounded=0;whiteSpace=wrap;html=1;dashed=1;strokeWidth=3;strokeColor=default;fillColor=none;" parent="1" vertex="1">
          <mxGeometry x="880" y="680" width="480" height="130" as="geometry" />
        </mxCell>
        <mxCell id="Jm2Hufen4dtFJxHupJbC-94" value="完全同步&lt;br&gt;逻辑" style="text;html=1;strokeColor=none;fillColor=none;align=center;verticalAlign=middle;whiteSpace=wrap;rounded=0;" parent="1" vertex="1">
          <mxGeometry x="880" y="680" width="60" height="30" as="geometry" />
        </mxCell>
        <mxCell id="Jm2Hufen4dtFJxHupJbC-95" value="&lt;p style=&quot;text-align: start;&quot; data-pm-slice=&quot;1 1 []&quot;&gt;/api/user/readings&lt;/p&gt;" style="text;html=1;strokeColor=none;fillColor=none;align=center;verticalAlign=middle;whiteSpace=wrap;rounded=0;" parent="1" vertex="1">
          <mxGeometry x="930" y="680" width="120" height="30" as="geometry" />
        </mxCell>
        <mxCell id="Jm2Hufen4dtFJxHupJbC-96" value="" style="rounded=0;whiteSpace=wrap;html=1;dashed=1;strokeWidth=3;strokeColor=default;fillColor=none;" parent="1" vertex="1">
          <mxGeometry x="890" y="880" width="480" height="160" as="geometry" />
        </mxCell>
        <mxCell id="Jm2Hufen4dtFJxHupJbC-97" value="增量同步&lt;br&gt;逻辑" style="text;html=1;strokeColor=none;fillColor=none;align=center;verticalAlign=middle;whiteSpace=wrap;rounded=0;" parent="1" vertex="1">
          <mxGeometry x="887" y="880" width="60" height="30" as="geometry" />
        </mxCell>
        <mxCell id="Jm2Hufen4dtFJxHupJbC-98" value="&lt;p style=&quot;text-align: start;&quot; data-pm-slice=&quot;1 1 []&quot;&gt;GET /api/sync/events?data_type=reading&amp;amp;last_event_id=&amp;amp;last_event_at=&amp;amp;limit=&lt;/p&gt;" style="text;html=1;strokeColor=none;fillColor=none;align=center;verticalAlign=middle;whiteSpace=wrap;rounded=0;" parent="1" vertex="1">
          <mxGeometry x="930" y="880" width="460" height="30" as="geometry" />
        </mxCell>
        <mxCell id="Jm2Hufen4dtFJxHupJbC-104" style="edgeStyle=orthogonalEdgeStyle;rounded=0;orthogonalLoop=1;jettySize=auto;html=1;exitX=0.5;exitY=1;exitDx=0;exitDy=0;" parent="1" source="Jm2Hufen4dtFJxHupJbC-100" target="Jm2Hufen4dtFJxHupJbC-103" edge="1">
          <mxGeometry relative="1" as="geometry" />
        </mxCell>
        <mxCell id="Jm2Hufen4dtFJxHupJbC-100" value="请求Readings接口" style="rounded=1;whiteSpace=wrap;html=1;" parent="1" vertex="1">
          <mxGeometry x="1062.5" y="710" width="115" height="30" as="geometry" />
        </mxCell>
        <mxCell id="Jm2Hufen4dtFJxHupJbC-101" style="edgeStyle=orthogonalEdgeStyle;rounded=0;orthogonalLoop=1;jettySize=auto;html=1;entryX=0;entryY=0.5;entryDx=0;entryDy=0;" parent="1" source="Jm2Hufen4dtFJxHupJbC-102" target="Jm2Hufen4dtFJxHupJbC-100" edge="1">
          <mxGeometry relative="1" as="geometry" />
        </mxCell>
        <mxCell id="Jm2Hufen4dtFJxHupJbC-102" value="入&lt;br&gt;&lt;br&gt;&lt;br&gt;&lt;br&gt;&lt;br&gt;&lt;br&gt;口" style="rounded=1;whiteSpace=wrap;html=1;" parent="1" vertex="1">
          <mxGeometry x="790" y="680" width="30" height="130" as="geometry" />
        </mxCell>
        <mxCell id="Jm2Hufen4dtFJxHupJbC-107" style="edgeStyle=orthogonalEdgeStyle;rounded=0;orthogonalLoop=1;jettySize=auto;html=1;entryX=0;entryY=0.5;entryDx=0;entryDy=0;" parent="1" source="Jm2Hufen4dtFJxHupJbC-103" target="Jm2Hufen4dtFJxHupJbC-106" edge="1">
          <mxGeometry relative="1" as="geometry" />
        </mxCell>
        <mxCell id="Jm2Hufen4dtFJxHupJbC-103" value="合并本地数据" style="rounded=1;whiteSpace=wrap;html=1;" parent="1" vertex="1">
          <mxGeometry x="1070" y="760" width="100" height="35" as="geometry" />
        </mxCell>
        <mxCell id="Jm2Hufen4dtFJxHupJbC-106" value="出&lt;br&gt;&lt;br&gt;&lt;br&gt;&lt;br&gt;&lt;br&gt;&lt;br&gt;口" style="rounded=1;whiteSpace=wrap;html=1;" parent="1" vertex="1">
          <mxGeometry x="1390" y="680" width="30" height="130" as="geometry" />
        </mxCell>
        <mxCell id="Jm2Hufen4dtFJxHupJbC-109" style="edgeStyle=orthogonalEdgeStyle;rounded=0;orthogonalLoop=1;jettySize=auto;html=1;exitX=0.5;exitY=1;exitDx=0;exitDy=0;" parent="1" source="Jm2Hufen4dtFJxHupJbC-110" target="Jm2Hufen4dtFJxHupJbC-114" edge="1">
          <mxGeometry relative="1" as="geometry" />
        </mxCell>
        <mxCell id="Jm2Hufen4dtFJxHupJbC-110" value="Get请求&lt;br&gt;events接口" style="rounded=1;whiteSpace=wrap;html=1;" parent="1" vertex="1">
          <mxGeometry x="1072.5" y="930" width="115" height="30" as="geometry" />
        </mxCell>
        <mxCell id="Jm2Hufen4dtFJxHupJbC-111" style="edgeStyle=orthogonalEdgeStyle;rounded=0;orthogonalLoop=1;jettySize=auto;html=1;entryX=0;entryY=0.5;entryDx=0;entryDy=0;" parent="1" source="Jm2Hufen4dtFJxHupJbC-112" target="Jm2Hufen4dtFJxHupJbC-110" edge="1">
          <mxGeometry relative="1" as="geometry" />
        </mxCell>
        <mxCell id="Jm2Hufen4dtFJxHupJbC-112" value="入&lt;br&gt;&lt;br&gt;&lt;br&gt;&lt;br&gt;&lt;br&gt;&lt;br&gt;口" style="rounded=1;whiteSpace=wrap;html=1;" parent="1" vertex="1">
          <mxGeometry x="790" y="900" width="30" height="130" as="geometry" />
        </mxCell>
        <mxCell id="Jm2Hufen4dtFJxHupJbC-113" style="edgeStyle=orthogonalEdgeStyle;rounded=0;orthogonalLoop=1;jettySize=auto;html=1;entryX=0;entryY=0.5;entryDx=0;entryDy=0;" parent="1" source="Jm2Hufen4dtFJxHupJbC-114" target="Jm2Hufen4dtFJxHupJbC-115" edge="1">
          <mxGeometry relative="1" as="geometry" />
        </mxCell>
        <mxCell id="Jm2Hufen4dtFJxHupJbC-114" value="合并本地数据" style="rounded=1;whiteSpace=wrap;html=1;" parent="1" vertex="1">
          <mxGeometry x="1080" y="980" width="100" height="35" as="geometry" />
        </mxCell>
        <mxCell id="Jm2Hufen4dtFJxHupJbC-115" value="出&lt;br&gt;&lt;br&gt;&lt;br&gt;&lt;br&gt;&lt;br&gt;&lt;br&gt;口" style="rounded=1;whiteSpace=wrap;html=1;" parent="1" vertex="1">
          <mxGeometry x="1390" y="900" width="30" height="130" as="geometry" />
        </mxCell>
        <mxCell id="Jm2Hufen4dtFJxHupJbC-123" style="edgeStyle=orthogonalEdgeStyle;rounded=0;orthogonalLoop=1;jettySize=auto;html=1;entryX=0.5;entryY=0;entryDx=0;entryDy=0;" parent="1" source="Jm2Hufen4dtFJxHupJbC-119" target="XDoq-C1qo8DsWmTua-bT-7" edge="1">
          <mxGeometry relative="1" as="geometry">
            <mxPoint x="277.5" y="755" as="targetPoint" />
          </mxGeometry>
        </mxCell>
        <mxCell id="Jm2Hufen4dtFJxHupJbC-129" style="edgeStyle=orthogonalEdgeStyle;rounded=0;orthogonalLoop=1;jettySize=auto;html=1;entryX=0;entryY=0.5;entryDx=0;entryDy=0;" parent="1" source="Jm2Hufen4dtFJxHupJbC-119" target="Jm2Hufen4dtFJxHupJbC-124" edge="1">
          <mxGeometry relative="1" as="geometry" />
        </mxCell>
        <mxCell id="Jm2Hufen4dtFJxHupJbC-119" value="上传PDF？" style="rhombus;whiteSpace=wrap;html=1;" parent="1" vertex="1">
          <mxGeometry x="220" y="570" width="115" height="50" as="geometry" />
        </mxCell>
        <mxCell id="Jm2Hufen4dtFJxHupJbC-127" style="edgeStyle=orthogonalEdgeStyle;rounded=0;orthogonalLoop=1;jettySize=auto;html=1;" parent="1" source="Jm2Hufen4dtFJxHupJbC-124" target="Jm2Hufen4dtFJxHupJbC-125" edge="1">
          <mxGeometry relative="1" as="geometry" />
        </mxCell>
        <mxCell id="Jm2Hufen4dtFJxHupJbC-124" value="&lt;p style=&quot;line-height: 30%;&quot; data-pm-slice=&quot;1 1 []&quot;&gt;上传PDF&lt;/p&gt;" style="rounded=1;whiteSpace=wrap;html=1;align=center;" parent="1" vertex="1">
          <mxGeometry x="397.5" y="580" width="80" height="30" as="geometry" />
        </mxCell>
        <mxCell id="Jm2Hufen4dtFJxHupJbC-128" style="edgeStyle=orthogonalEdgeStyle;rounded=0;orthogonalLoop=1;jettySize=auto;html=1;exitX=0.5;exitY=1;exitDx=0;exitDy=0;" parent="1" source="Jm2Hufen4dtFJxHupJbC-125" target="Jm2Hufen4dtFJxHupJbC-126" edge="1">
          <mxGeometry relative="1" as="geometry" />
        </mxCell>
        <mxCell id="Jm2Hufen4dtFJxHupJbC-125" value="&lt;p style=&quot;line-height: 30%;&quot; data-pm-slice=&quot;1 1 []&quot;&gt;获取链接&lt;/p&gt;" style="rounded=1;whiteSpace=wrap;html=1;align=center;" parent="1" vertex="1">
          <mxGeometry x="397.5" y="670" width="80" height="30" as="geometry" />
        </mxCell>
        <mxCell id="Jm2Hufen4dtFJxHupJbC-130" style="edgeStyle=orthogonalEdgeStyle;rounded=0;orthogonalLoop=1;jettySize=auto;html=1;" parent="1" source="Jm2Hufen4dtFJxHupJbC-126" target="XDoq-C1qo8DsWmTua-bT-7" edge="1">
          <mxGeometry relative="1" as="geometry">
            <mxPoint x="347.5" y="775" as="targetPoint" />
          </mxGeometry>
        </mxCell>
        <mxCell id="Jm2Hufen4dtFJxHupJbC-126" value="&lt;p style=&quot;line-height: 30%;&quot; data-pm-slice=&quot;1 1 []&quot;&gt;请求生成&lt;/p&gt;&lt;p style=&quot;line-height: 30%;&quot; data-pm-slice=&quot;1 1 []&quot;&gt;Share ID&lt;/p&gt;" style="rounded=1;whiteSpace=wrap;html=1;align=center;" parent="1" vertex="1">
          <mxGeometry x="392.5" y="740" width="90" height="40" as="geometry" />
        </mxCell>
        <mxCell id="Jm2Hufen4dtFJxHupJbC-131" value="Yes" style="text;html=1;align=center;verticalAlign=middle;resizable=0;points=[];autosize=1;strokeColor=none;fillColor=none;" parent="1" vertex="1">
          <mxGeometry x="340" y="570" width="40" height="30" as="geometry" />
        </mxCell>
        <mxCell id="Jm2Hufen4dtFJxHupJbC-132" value="No" style="text;html=1;align=center;verticalAlign=middle;resizable=0;points=[];autosize=1;strokeColor=none;fillColor=none;" parent="1" vertex="1">
          <mxGeometry x="232.5" y="620" width="40" height="30" as="geometry" />
        </mxCell>
        <mxCell id="Jm2Hufen4dtFJxHupJbC-133" value="&lt;font style=&quot;font-size: 18px;&quot;&gt;State查询最新状态逻辑&lt;/font&gt;" style="text;html=1;align=center;verticalAlign=middle;resizable=0;points=[];autosize=1;strokeColor=none;fillColor=none;" parent="1" vertex="1">
          <mxGeometry x="870" y="170" width="210" height="30" as="geometry" />
        </mxCell>
        <mxCell id="Jm2Hufen4dtFJxHupJbC-134" value="&lt;font style=&quot;font-size: 18px;&quot;&gt;State查询最新状态 ——完全同步逻辑&lt;/font&gt;" style="text;html=1;align=center;verticalAlign=middle;resizable=0;points=[];autosize=1;strokeColor=none;fillColor=none;" parent="1" vertex="1">
          <mxGeometry x="880" y="650" width="320" height="30" as="geometry" />
        </mxCell>
        <mxCell id="Jm2Hufen4dtFJxHupJbC-135" value="&lt;font style=&quot;font-size: 18px;&quot;&gt;State查询最新状态 ——增量同步逻辑&lt;/font&gt;" style="text;html=1;align=center;verticalAlign=middle;resizable=0;points=[];autosize=1;strokeColor=none;fillColor=none;" parent="1" vertex="1">
          <mxGeometry x="880" y="850" width="320" height="30" as="geometry" />
        </mxCell>
        <mxCell id="Jm2Hufen4dtFJxHupJbC-136" value="" style="rounded=0;whiteSpace=wrap;html=1;dashed=1;strokeWidth=3;strokeColor=default;fillColor=none;" parent="1" vertex="1">
          <mxGeometry x="710" y="1150" width="670" height="800" as="geometry" />
        </mxCell>
        <mxCell id="Jm2Hufen4dtFJxHupJbC-137" value="增量同步&lt;br&gt;逻辑" style="text;html=1;strokeColor=none;fillColor=none;align=center;verticalAlign=middle;whiteSpace=wrap;rounded=0;" parent="1" vertex="1">
          <mxGeometry x="710" y="1150" width="60" height="30" as="geometry" />
        </mxCell>
        <mxCell id="Jm2Hufen4dtFJxHupJbC-138" value="&lt;p style=&quot;text-align: start;&quot; data-pm-slice=&quot;1 1 []&quot;&gt;PUT /api/sync/events?data_type=reading&amp;amp;last_event_id=&amp;amp;last_event_at=&amp;amp;limit=&lt;/p&gt;" style="text;html=1;strokeColor=none;fillColor=none;align=center;verticalAlign=middle;whiteSpace=wrap;rounded=0;" parent="1" vertex="1">
          <mxGeometry x="760" y="1150" width="440" height="30" as="geometry" />
        </mxCell>
        <mxCell id="Jm2Hufen4dtFJxHupJbC-157" style="edgeStyle=orthogonalEdgeStyle;rounded=0;orthogonalLoop=1;jettySize=auto;html=1;shape=link;" parent="1" source="Jm2Hufen4dtFJxHupJbC-140" target="Jm2Hufen4dtFJxHupJbC-149" edge="1">
          <mxGeometry relative="1" as="geometry" />
        </mxCell>
        <mxCell id="Jm2Hufen4dtFJxHupJbC-140" value="Put请求&lt;br&gt;events接口" style="rounded=1;whiteSpace=wrap;html=1;" parent="1" vertex="1">
          <mxGeometry x="903.75" y="1200" width="115" height="30" as="geometry" />
        </mxCell>
        <mxCell id="Jm2Hufen4dtFJxHupJbC-278" style="edgeStyle=orthogonalEdgeStyle;rounded=0;orthogonalLoop=1;jettySize=auto;html=1;entryX=0;entryY=0.5;entryDx=0;entryDy=0;" parent="1" source="Jm2Hufen4dtFJxHupJbC-142" target="Jm2Hufen4dtFJxHupJbC-140" edge="1">
          <mxGeometry relative="1" as="geometry">
            <Array as="points">
              <mxPoint x="690" y="1530" />
              <mxPoint x="690" y="1215" />
            </Array>
          </mxGeometry>
        </mxCell>
        <mxCell id="Jm2Hufen4dtFJxHupJbC-142" value="入&lt;br&gt;&lt;br&gt;&lt;br&gt;&lt;br&gt;&lt;br&gt;&lt;br&gt;口" style="rounded=1;whiteSpace=wrap;html=1;" parent="1" vertex="1">
          <mxGeometry x="630" y="1295" width="30" height="470" as="geometry" />
        </mxCell>
        <mxCell id="Jm2Hufen4dtFJxHupJbC-146" value="&lt;font style=&quot;font-size: 18px;&quot;&gt;Put修改响应&lt;/font&gt;" style="text;html=1;align=center;verticalAlign=middle;resizable=0;points=[];autosize=1;strokeColor=none;fillColor=none;" parent="1" vertex="1">
          <mxGeometry x="710" y="1110" width="120" height="30" as="geometry" />
        </mxCell>
        <mxCell id="Jm2Hufen4dtFJxHupJbC-213" style="edgeStyle=orthogonalEdgeStyle;rounded=0;orthogonalLoop=1;jettySize=auto;html=1;shape=link;" parent="1" source="Jm2Hufen4dtFJxHupJbC-149" target="Jm2Hufen4dtFJxHupJbC-199" edge="1">
          <mxGeometry relative="1" as="geometry" />
        </mxCell>
        <mxCell id="Jm2Hufen4dtFJxHupJbC-149" value="Event-1 响应状态码" style="swimlane;fontStyle=0;childLayout=stackLayout;horizontal=1;startSize=30;horizontalStack=0;resizeParent=1;resizeParentMax=0;resizeLast=0;collapsible=1;marginBottom=0;whiteSpace=wrap;html=1;" parent="1" vertex="1">
          <mxGeometry x="882.5" y="1265" width="157.5" height="180" as="geometry">
            <mxRectangle x="890" y="1400" width="100" height="30" as="alternateBounds" />
          </mxGeometry>
        </mxCell>
        <mxCell id="Jm2Hufen4dtFJxHupJbC-150" value="202 &amp;nbsp;Accepted&lt;br&gt;" style="text;strokeColor=none;fillColor=none;align=left;verticalAlign=middle;spacingLeft=4;spacingRight=4;overflow=hidden;points=[[0,0.5],[1,0.5]];portConstraint=eastwest;rotatable=0;whiteSpace=wrap;html=1;" parent="Jm2Hufen4dtFJxHupJbC-149" vertex="1">
          <mxGeometry y="30" width="157.5" height="30" as="geometry" />
        </mxCell>
        <mxCell id="Jm2Hufen4dtFJxHupJbC-151" value="200 &amp;nbsp;OK" style="text;strokeColor=none;fillColor=none;align=left;verticalAlign=middle;spacingLeft=4;spacingRight=4;overflow=hidden;points=[[0,0.5],[1,0.5]];portConstraint=eastwest;rotatable=0;whiteSpace=wrap;html=1;" parent="Jm2Hufen4dtFJxHupJbC-149" vertex="1">
          <mxGeometry y="60" width="157.5" height="30" as="geometry" />
        </mxCell>
        <mxCell id="Jm2Hufen4dtFJxHupJbC-155" value="422 Unprocessable Entity" style="text;strokeColor=none;fillColor=none;align=left;verticalAlign=middle;spacingLeft=4;spacingRight=4;overflow=hidden;points=[[0,0.5],[1,0.5]];portConstraint=eastwest;rotatable=0;whiteSpace=wrap;html=1;" parent="Jm2Hufen4dtFJxHupJbC-149" vertex="1">
          <mxGeometry y="90" width="157.5" height="30" as="geometry" />
        </mxCell>
        <mxCell id="Jm2Hufen4dtFJxHupJbC-152" value="409 Conflict" style="text;strokeColor=none;fillColor=none;align=left;verticalAlign=middle;spacingLeft=4;spacingRight=4;overflow=hidden;points=[[0,0.5],[1,0.5]];portConstraint=eastwest;rotatable=0;whiteSpace=wrap;html=1;" parent="Jm2Hufen4dtFJxHupJbC-149" vertex="1">
          <mxGeometry y="120" width="157.5" height="30" as="geometry" />
        </mxCell>
        <mxCell id="Jm2Hufen4dtFJxHupJbC-154" value="500 Retry" style="text;strokeColor=none;fillColor=none;align=left;verticalAlign=middle;spacingLeft=4;spacingRight=4;overflow=hidden;points=[[0,0.5],[1,0.5]];portConstraint=eastwest;rotatable=0;whiteSpace=wrap;html=1;" parent="Jm2Hufen4dtFJxHupJbC-149" vertex="1">
          <mxGeometry y="150" width="157.5" height="30" as="geometry" />
        </mxCell>
        <mxCell id="Jm2Hufen4dtFJxHupJbC-214" style="edgeStyle=orthogonalEdgeStyle;rounded=0;orthogonalLoop=1;jettySize=auto;html=1;exitX=0.5;exitY=1;exitDx=0;exitDy=0;entryX=0.01;entryY=0.072;entryDx=0;entryDy=0;entryPerimeter=0;" parent="1" source="Jm2Hufen4dtFJxHupJbC-179" target="Jm2Hufen4dtFJxHupJbC-199" edge="1">
          <mxGeometry relative="1" as="geometry">
            <Array as="points">
              <mxPoint x="805" y="1483" />
            </Array>
          </mxGeometry>
        </mxCell>
        <mxCell id="Jm2Hufen4dtFJxHupJbC-179" value="成功" style="rounded=0;whiteSpace=wrap;html=1;" parent="1" vertex="1">
          <mxGeometry x="776.5" y="1327.5" width="57" height="25" as="geometry" />
        </mxCell>
        <mxCell id="Jm2Hufen4dtFJxHupJbC-275" style="edgeStyle=orthogonalEdgeStyle;rounded=0;orthogonalLoop=1;jettySize=auto;html=1;exitX=1;exitY=0.5;exitDx=0;exitDy=0;entryX=0;entryY=0.5;entryDx=0;entryDy=0;" parent="1" source="Jm2Hufen4dtFJxHupJbC-182" target="Jm2Hufen4dtFJxHupJbC-262" edge="1">
          <mxGeometry relative="1" as="geometry" />
        </mxCell>
        <mxCell id="Jm2Hufen4dtFJxHupJbC-182" value="完全同步" style="rounded=1;whiteSpace=wrap;html=1;" parent="1" vertex="1">
          <mxGeometry x="1150" y="1360" width="60" height="20" as="geometry" />
        </mxCell>
        <mxCell id="Jm2Hufen4dtFJxHupJbC-183" style="edgeStyle=orthogonalEdgeStyle;rounded=0;orthogonalLoop=1;jettySize=auto;html=1;exitX=1;exitY=0.5;exitDx=0;exitDy=0;" parent="1" source="Jm2Hufen4dtFJxHupJbC-155" target="Jm2Hufen4dtFJxHupJbC-182" edge="1">
          <mxGeometry relative="1" as="geometry" />
        </mxCell>
        <mxCell id="Jm2Hufen4dtFJxHupJbC-184" value="双端数据不一致" style="text;html=1;align=center;verticalAlign=middle;resizable=0;points=[];autosize=1;strokeColor=none;fillColor=none;" parent="1" vertex="1">
          <mxGeometry x="1030" y="1349" width="110" height="30" as="geometry" />
        </mxCell>
        <mxCell id="Jm2Hufen4dtFJxHupJbC-267" style="edgeStyle=orthogonalEdgeStyle;rounded=0;orthogonalLoop=1;jettySize=auto;html=1;exitX=1;exitY=0.5;exitDx=0;exitDy=0;entryX=0;entryY=0.5;entryDx=0;entryDy=0;" parent="1" source="Jm2Hufen4dtFJxHupJbC-186" target="Jm2Hufen4dtFJxHupJbC-262" edge="1">
          <mxGeometry relative="1" as="geometry" />
        </mxCell>
        <mxCell id="Jm2Hufen4dtFJxHupJbC-186" value="重试" style="rounded=1;whiteSpace=wrap;html=1;" parent="1" vertex="1">
          <mxGeometry x="1150" y="1418.75" width="60" height="22.5" as="geometry" />
        </mxCell>
        <mxCell id="Jm2Hufen4dtFJxHupJbC-187" style="edgeStyle=orthogonalEdgeStyle;rounded=0;orthogonalLoop=1;jettySize=auto;html=1;exitX=1;exitY=0.5;exitDx=0;exitDy=0;" parent="1" source="Jm2Hufen4dtFJxHupJbC-154" target="Jm2Hufen4dtFJxHupJbC-186" edge="1">
          <mxGeometry relative="1" as="geometry" />
        </mxCell>
        <mxCell id="Jm2Hufen4dtFJxHupJbC-197" style="edgeStyle=orthogonalEdgeStyle;rounded=0;orthogonalLoop=1;jettySize=auto;html=1;exitX=0;exitY=0.5;exitDx=0;exitDy=0;" parent="1" source="Jm2Hufen4dtFJxHupJbC-151" target="Jm2Hufen4dtFJxHupJbC-179" edge="1">
          <mxGeometry relative="1" as="geometry" />
        </mxCell>
        <mxCell id="Jm2Hufen4dtFJxHupJbC-233" style="edgeStyle=orthogonalEdgeStyle;rounded=0;orthogonalLoop=1;jettySize=auto;html=1;shape=link;" parent="1" source="Jm2Hufen4dtFJxHupJbC-199" target="Jm2Hufen4dtFJxHupJbC-230" edge="1">
          <mxGeometry relative="1" as="geometry" />
        </mxCell>
        <mxCell id="Jm2Hufen4dtFJxHupJbC-199" value="Event-2 响应状态码" style="swimlane;fontStyle=0;childLayout=stackLayout;horizontal=1;startSize=30;horizontalStack=0;resizeParent=1;resizeParentMax=0;resizeLast=0;collapsible=1;marginBottom=0;whiteSpace=wrap;html=1;" parent="1" vertex="1">
          <mxGeometry x="882.5" y="1470" width="157.5" height="180" as="geometry">
            <mxRectangle x="890" y="1400" width="100" height="30" as="alternateBounds" />
          </mxGeometry>
        </mxCell>
        <mxCell id="Jm2Hufen4dtFJxHupJbC-200" value="202 &amp;nbsp;Accepted&lt;br&gt;" style="text;strokeColor=none;fillColor=none;align=left;verticalAlign=middle;spacingLeft=4;spacingRight=4;overflow=hidden;points=[[0,0.5],[1,0.5]];portConstraint=eastwest;rotatable=0;whiteSpace=wrap;html=1;" parent="Jm2Hufen4dtFJxHupJbC-199" vertex="1">
          <mxGeometry y="30" width="157.5" height="30" as="geometry" />
        </mxCell>
        <mxCell id="Jm2Hufen4dtFJxHupJbC-201" value="200 &amp;nbsp;OK" style="text;strokeColor=none;fillColor=none;align=left;verticalAlign=middle;spacingLeft=4;spacingRight=4;overflow=hidden;points=[[0,0.5],[1,0.5]];portConstraint=eastwest;rotatable=0;whiteSpace=wrap;html=1;" parent="Jm2Hufen4dtFJxHupJbC-199" vertex="1">
          <mxGeometry y="60" width="157.5" height="30" as="geometry" />
        </mxCell>
        <mxCell id="Jm2Hufen4dtFJxHupJbC-202" value="422 Unprocessable Entity" style="text;strokeColor=none;fillColor=none;align=left;verticalAlign=middle;spacingLeft=4;spacingRight=4;overflow=hidden;points=[[0,0.5],[1,0.5]];portConstraint=eastwest;rotatable=0;whiteSpace=wrap;html=1;" parent="Jm2Hufen4dtFJxHupJbC-199" vertex="1">
          <mxGeometry y="90" width="157.5" height="30" as="geometry" />
        </mxCell>
        <mxCell id="Jm2Hufen4dtFJxHupJbC-203" value="409 Conflict" style="text;strokeColor=none;fillColor=none;align=left;verticalAlign=middle;spacingLeft=4;spacingRight=4;overflow=hidden;points=[[0,0.5],[1,0.5]];portConstraint=eastwest;rotatable=0;whiteSpace=wrap;html=1;" parent="Jm2Hufen4dtFJxHupJbC-199" vertex="1">
          <mxGeometry y="120" width="157.5" height="30" as="geometry" />
        </mxCell>
        <mxCell id="Jm2Hufen4dtFJxHupJbC-204" value="500 Retry" style="text;strokeColor=none;fillColor=none;align=left;verticalAlign=middle;spacingLeft=4;spacingRight=4;overflow=hidden;points=[[0,0.5],[1,0.5]];portConstraint=eastwest;rotatable=0;whiteSpace=wrap;html=1;" parent="Jm2Hufen4dtFJxHupJbC-199" vertex="1">
          <mxGeometry y="150" width="157.5" height="30" as="geometry" />
        </mxCell>
        <mxCell id="Jm2Hufen4dtFJxHupJbC-235" style="edgeStyle=orthogonalEdgeStyle;rounded=0;orthogonalLoop=1;jettySize=auto;html=1;exitX=0.5;exitY=1;exitDx=0;exitDy=0;" parent="1" source="Jm2Hufen4dtFJxHupJbC-205" target="Jm2Hufen4dtFJxHupJbC-215" edge="1">
          <mxGeometry relative="1" as="geometry">
            <Array as="points">
              <mxPoint x="805" y="1736" />
            </Array>
          </mxGeometry>
        </mxCell>
        <mxCell id="Jm2Hufen4dtFJxHupJbC-205" value="成功" style="rounded=0;whiteSpace=wrap;html=1;" parent="1" vertex="1">
          <mxGeometry x="776.5" y="1532.5" width="57" height="25" as="geometry" />
        </mxCell>
        <mxCell id="Jm2Hufen4dtFJxHupJbC-212" style="edgeStyle=orthogonalEdgeStyle;rounded=0;orthogonalLoop=1;jettySize=auto;html=1;exitX=0;exitY=0.5;exitDx=0;exitDy=0;" parent="1" source="Jm2Hufen4dtFJxHupJbC-201" target="Jm2Hufen4dtFJxHupJbC-205" edge="1">
          <mxGeometry relative="1" as="geometry" />
        </mxCell>
        <mxCell id="Jm2Hufen4dtFJxHupJbC-215" value="Event-N 响应状态码" style="swimlane;fontStyle=0;childLayout=stackLayout;horizontal=1;startSize=30;horizontalStack=0;resizeParent=1;resizeParentMax=0;resizeLast=0;collapsible=1;marginBottom=0;whiteSpace=wrap;html=1;" parent="1" vertex="1">
          <mxGeometry x="883" y="1720" width="157.5" height="180" as="geometry">
            <mxRectangle x="890" y="1400" width="100" height="30" as="alternateBounds" />
          </mxGeometry>
        </mxCell>
        <mxCell id="Jm2Hufen4dtFJxHupJbC-216" value="202 &amp;nbsp;Accepted&lt;br&gt;" style="text;strokeColor=none;fillColor=none;align=left;verticalAlign=middle;spacingLeft=4;spacingRight=4;overflow=hidden;points=[[0,0.5],[1,0.5]];portConstraint=eastwest;rotatable=0;whiteSpace=wrap;html=1;" parent="Jm2Hufen4dtFJxHupJbC-215" vertex="1">
          <mxGeometry y="30" width="157.5" height="30" as="geometry" />
        </mxCell>
        <mxCell id="Jm2Hufen4dtFJxHupJbC-217" value="200 &amp;nbsp;OK" style="text;strokeColor=none;fillColor=none;align=left;verticalAlign=middle;spacingLeft=4;spacingRight=4;overflow=hidden;points=[[0,0.5],[1,0.5]];portConstraint=eastwest;rotatable=0;whiteSpace=wrap;html=1;" parent="Jm2Hufen4dtFJxHupJbC-215" vertex="1">
          <mxGeometry y="60" width="157.5" height="30" as="geometry" />
        </mxCell>
        <mxCell id="Jm2Hufen4dtFJxHupJbC-218" value="422 Unprocessable Entity" style="text;strokeColor=none;fillColor=none;align=left;verticalAlign=middle;spacingLeft=4;spacingRight=4;overflow=hidden;points=[[0,0.5],[1,0.5]];portConstraint=eastwest;rotatable=0;whiteSpace=wrap;html=1;" parent="Jm2Hufen4dtFJxHupJbC-215" vertex="1">
          <mxGeometry y="90" width="157.5" height="30" as="geometry" />
        </mxCell>
        <mxCell id="Jm2Hufen4dtFJxHupJbC-219" value="409 Conflict" style="text;strokeColor=none;fillColor=none;align=left;verticalAlign=middle;spacingLeft=4;spacingRight=4;overflow=hidden;points=[[0,0.5],[1,0.5]];portConstraint=eastwest;rotatable=0;whiteSpace=wrap;html=1;" parent="Jm2Hufen4dtFJxHupJbC-215" vertex="1">
          <mxGeometry y="120" width="157.5" height="30" as="geometry" />
        </mxCell>
        <mxCell id="Jm2Hufen4dtFJxHupJbC-220" value="500 Retry" style="text;strokeColor=none;fillColor=none;align=left;verticalAlign=middle;spacingLeft=4;spacingRight=4;overflow=hidden;points=[[0,0.5],[1,0.5]];portConstraint=eastwest;rotatable=0;whiteSpace=wrap;html=1;" parent="Jm2Hufen4dtFJxHupJbC-215" vertex="1">
          <mxGeometry y="150" width="157.5" height="30" as="geometry" />
        </mxCell>
        <mxCell id="Jm2Hufen4dtFJxHupJbC-263" style="edgeStyle=orthogonalEdgeStyle;rounded=0;orthogonalLoop=1;jettySize=auto;html=1;exitX=0.5;exitY=1;exitDx=0;exitDy=0;" parent="1" source="Jm2Hufen4dtFJxHupJbC-221" target="Jm2Hufen4dtFJxHupJbC-261" edge="1">
          <mxGeometry relative="1" as="geometry">
            <Array as="points">
              <mxPoint x="806" y="1920" />
              <mxPoint x="980" y="1920" />
            </Array>
          </mxGeometry>
        </mxCell>
        <mxCell id="Jm2Hufen4dtFJxHupJbC-221" value="成功" style="rounded=0;whiteSpace=wrap;html=1;" parent="1" vertex="1">
          <mxGeometry x="776.5" y="1782.5" width="57" height="25" as="geometry" />
        </mxCell>
        <mxCell id="Jm2Hufen4dtFJxHupJbC-228" style="edgeStyle=orthogonalEdgeStyle;rounded=0;orthogonalLoop=1;jettySize=auto;html=1;exitX=0;exitY=0.5;exitDx=0;exitDy=0;" parent="1" source="Jm2Hufen4dtFJxHupJbC-217" target="Jm2Hufen4dtFJxHupJbC-221" edge="1">
          <mxGeometry relative="1" as="geometry" />
        </mxCell>
        <mxCell id="Jm2Hufen4dtFJxHupJbC-234" style="edgeStyle=orthogonalEdgeStyle;rounded=0;orthogonalLoop=1;jettySize=auto;html=1;entryX=0.5;entryY=0;entryDx=0;entryDy=0;shape=link;" parent="1" source="Jm2Hufen4dtFJxHupJbC-230" target="Jm2Hufen4dtFJxHupJbC-215" edge="1">
          <mxGeometry relative="1" as="geometry" />
        </mxCell>
        <mxCell id="Jm2Hufen4dtFJxHupJbC-230" value="... ..." style="text;html=1;align=center;verticalAlign=middle;resizable=0;points=[];autosize=1;strokeColor=none;fillColor=none;" parent="1" vertex="1">
          <mxGeometry x="936.25" y="1670" width="50" height="30" as="geometry" />
        </mxCell>
        <mxCell id="Jm2Hufen4dtFJxHupJbC-266" style="edgeStyle=orthogonalEdgeStyle;rounded=0;orthogonalLoop=1;jettySize=auto;html=1;exitX=1;exitY=0.5;exitDx=0;exitDy=0;" parent="1" source="Jm2Hufen4dtFJxHupJbC-236" target="Jm2Hufen4dtFJxHupJbC-262" edge="1">
          <mxGeometry relative="1" as="geometry" />
        </mxCell>
        <mxCell id="Jm2Hufen4dtFJxHupJbC-236" value="解决冲突" style="rounded=1;whiteSpace=wrap;html=1;" parent="1" vertex="1">
          <mxGeometry x="1150" y="1388.75" width="60" height="22.5" as="geometry" />
        </mxCell>
        <mxCell id="Jm2Hufen4dtFJxHupJbC-237" style="edgeStyle=orthogonalEdgeStyle;rounded=0;orthogonalLoop=1;jettySize=auto;html=1;exitX=1;exitY=0.5;exitDx=0;exitDy=0;" parent="1" source="Jm2Hufen4dtFJxHupJbC-152" target="Jm2Hufen4dtFJxHupJbC-236" edge="1">
          <mxGeometry relative="1" as="geometry" />
        </mxCell>
        <mxCell id="Jm2Hufen4dtFJxHupJbC-238" value="发生冲突" style="text;html=1;align=center;verticalAlign=middle;resizable=0;points=[];autosize=1;strokeColor=none;fillColor=none;" parent="1" vertex="1">
          <mxGeometry x="1050" y="1379" width="70" height="30" as="geometry" />
        </mxCell>
        <mxCell id="Jm2Hufen4dtFJxHupJbC-268" style="edgeStyle=orthogonalEdgeStyle;rounded=0;orthogonalLoop=1;jettySize=auto;html=1;exitX=1;exitY=0.5;exitDx=0;exitDy=0;entryX=0;entryY=0.5;entryDx=0;entryDy=0;" parent="1" source="Jm2Hufen4dtFJxHupJbC-239" target="Jm2Hufen4dtFJxHupJbC-262" edge="1">
          <mxGeometry relative="1" as="geometry" />
        </mxCell>
        <mxCell id="Jm2Hufen4dtFJxHupJbC-239" value="完全同步" style="whiteSpace=wrap;html=1;rounded=1;" parent="1" vertex="1">
          <mxGeometry x="1150" y="1565" width="60" height="20" as="geometry" />
        </mxCell>
        <mxCell id="Jm2Hufen4dtFJxHupJbC-270" style="edgeStyle=orthogonalEdgeStyle;rounded=0;orthogonalLoop=1;jettySize=auto;html=1;exitX=1;exitY=0.5;exitDx=0;exitDy=0;" parent="1" source="Jm2Hufen4dtFJxHupJbC-242" target="Jm2Hufen4dtFJxHupJbC-262" edge="1">
          <mxGeometry relative="1" as="geometry" />
        </mxCell>
        <mxCell id="Jm2Hufen4dtFJxHupJbC-242" value="重试" style="rounded=1;whiteSpace=wrap;html=1;" parent="1" vertex="1">
          <mxGeometry x="1150" y="1623.75" width="60" height="22.5" as="geometry" />
        </mxCell>
        <mxCell id="Jm2Hufen4dtFJxHupJbC-269" style="edgeStyle=orthogonalEdgeStyle;rounded=0;orthogonalLoop=1;jettySize=auto;html=1;exitX=1;exitY=0.5;exitDx=0;exitDy=0;" parent="1" source="Jm2Hufen4dtFJxHupJbC-244" target="Jm2Hufen4dtFJxHupJbC-262" edge="1">
          <mxGeometry relative="1" as="geometry" />
        </mxCell>
        <mxCell id="Jm2Hufen4dtFJxHupJbC-244" value="解决冲突" style="rounded=1;whiteSpace=wrap;html=1;" parent="1" vertex="1">
          <mxGeometry x="1150" y="1593.75" width="60" height="22.5" as="geometry" />
        </mxCell>
        <mxCell id="Jm2Hufen4dtFJxHupJbC-247" style="edgeStyle=orthogonalEdgeStyle;rounded=0;orthogonalLoop=1;jettySize=auto;html=1;entryX=0;entryY=0.5;entryDx=0;entryDy=0;" parent="1" source="Jm2Hufen4dtFJxHupJbC-202" target="Jm2Hufen4dtFJxHupJbC-239" edge="1">
          <mxGeometry relative="1" as="geometry" />
        </mxCell>
        <mxCell id="Jm2Hufen4dtFJxHupJbC-249" style="edgeStyle=orthogonalEdgeStyle;rounded=0;orthogonalLoop=1;jettySize=auto;html=1;exitX=1;exitY=0.5;exitDx=0;exitDy=0;" parent="1" source="Jm2Hufen4dtFJxHupJbC-203" target="Jm2Hufen4dtFJxHupJbC-244" edge="1">
          <mxGeometry relative="1" as="geometry" />
        </mxCell>
        <mxCell id="Jm2Hufen4dtFJxHupJbC-250" style="edgeStyle=orthogonalEdgeStyle;rounded=0;orthogonalLoop=1;jettySize=auto;html=1;exitX=1;exitY=0.5;exitDx=0;exitDy=0;" parent="1" source="Jm2Hufen4dtFJxHupJbC-204" target="Jm2Hufen4dtFJxHupJbC-242" edge="1">
          <mxGeometry relative="1" as="geometry" />
        </mxCell>
        <mxCell id="Jm2Hufen4dtFJxHupJbC-271" style="edgeStyle=orthogonalEdgeStyle;rounded=0;orthogonalLoop=1;jettySize=auto;html=1;exitX=1;exitY=0.5;exitDx=0;exitDy=0;entryX=0;entryY=0.5;entryDx=0;entryDy=0;" parent="1" source="Jm2Hufen4dtFJxHupJbC-251" target="Jm2Hufen4dtFJxHupJbC-262" edge="1">
          <mxGeometry relative="1" as="geometry" />
        </mxCell>
        <mxCell id="Jm2Hufen4dtFJxHupJbC-251" value="完全同步" style="whiteSpace=wrap;html=1;rounded=1;" parent="1" vertex="1">
          <mxGeometry x="1150" y="1815" width="60" height="20" as="geometry" />
        </mxCell>
        <mxCell id="Jm2Hufen4dtFJxHupJbC-274" style="edgeStyle=orthogonalEdgeStyle;rounded=0;orthogonalLoop=1;jettySize=auto;html=1;exitX=1;exitY=0.5;exitDx=0;exitDy=0;entryX=0;entryY=0.5;entryDx=0;entryDy=0;" parent="1" source="Jm2Hufen4dtFJxHupJbC-252" target="Jm2Hufen4dtFJxHupJbC-262" edge="1">
          <mxGeometry relative="1" as="geometry" />
        </mxCell>
        <mxCell id="Jm2Hufen4dtFJxHupJbC-252" value="重试" style="rounded=1;whiteSpace=wrap;html=1;" parent="1" vertex="1">
          <mxGeometry x="1150" y="1873.75" width="60" height="22.5" as="geometry" />
        </mxCell>
        <mxCell id="Jm2Hufen4dtFJxHupJbC-272" style="edgeStyle=orthogonalEdgeStyle;rounded=0;orthogonalLoop=1;jettySize=auto;html=1;" parent="1" source="Jm2Hufen4dtFJxHupJbC-253" target="Jm2Hufen4dtFJxHupJbC-262" edge="1">
          <mxGeometry relative="1" as="geometry" />
        </mxCell>
        <mxCell id="Jm2Hufen4dtFJxHupJbC-253" value="解决冲突" style="rounded=1;whiteSpace=wrap;html=1;" parent="1" vertex="1">
          <mxGeometry x="1150" y="1843.75" width="60" height="22.5" as="geometry" />
        </mxCell>
        <mxCell id="Jm2Hufen4dtFJxHupJbC-254" style="edgeStyle=orthogonalEdgeStyle;rounded=0;orthogonalLoop=1;jettySize=auto;html=1;exitX=1;exitY=0.5;exitDx=0;exitDy=0;entryX=0;entryY=0.5;entryDx=0;entryDy=0;" parent="1" source="Jm2Hufen4dtFJxHupJbC-218" target="Jm2Hufen4dtFJxHupJbC-251" edge="1">
          <mxGeometry relative="1" as="geometry" />
        </mxCell>
        <mxCell id="Jm2Hufen4dtFJxHupJbC-255" style="edgeStyle=orthogonalEdgeStyle;rounded=0;orthogonalLoop=1;jettySize=auto;html=1;exitX=1;exitY=0.5;exitDx=0;exitDy=0;" parent="1" source="Jm2Hufen4dtFJxHupJbC-219" target="Jm2Hufen4dtFJxHupJbC-253" edge="1">
          <mxGeometry relative="1" as="geometry" />
        </mxCell>
        <mxCell id="Jm2Hufen4dtFJxHupJbC-256" style="edgeStyle=orthogonalEdgeStyle;rounded=0;orthogonalLoop=1;jettySize=auto;html=1;exitX=1;exitY=0.5;exitDx=0;exitDy=0;" parent="1" source="Jm2Hufen4dtFJxHupJbC-220" target="Jm2Hufen4dtFJxHupJbC-252" edge="1">
          <mxGeometry relative="1" as="geometry" />
        </mxCell>
        <mxCell id="Jm2Hufen4dtFJxHupJbC-257" value="双端数据不一致" style="text;html=1;align=center;verticalAlign=middle;resizable=0;points=[];autosize=1;strokeColor=none;fillColor=none;" parent="1" vertex="1">
          <mxGeometry x="1030" y="1554" width="110" height="30" as="geometry" />
        </mxCell>
        <mxCell id="Jm2Hufen4dtFJxHupJbC-258" value="发生冲突" style="text;html=1;align=center;verticalAlign=middle;resizable=0;points=[];autosize=1;strokeColor=none;fillColor=none;" parent="1" vertex="1">
          <mxGeometry x="1050" y="1584" width="70" height="30" as="geometry" />
        </mxCell>
        <mxCell id="Jm2Hufen4dtFJxHupJbC-259" value="双端数据不一致" style="text;html=1;align=center;verticalAlign=middle;resizable=0;points=[];autosize=1;strokeColor=none;fillColor=none;" parent="1" vertex="1">
          <mxGeometry x="1030" y="1804.25" width="110" height="30" as="geometry" />
        </mxCell>
        <mxCell id="Jm2Hufen4dtFJxHupJbC-260" value="发生冲突" style="text;html=1;align=center;verticalAlign=middle;resizable=0;points=[];autosize=1;strokeColor=none;fillColor=none;" parent="1" vertex="1">
          <mxGeometry x="1050" y="1834.25" width="70" height="30" as="geometry" />
        </mxCell>
        <mxCell id="Jm2Hufen4dtFJxHupJbC-261" value="出&lt;span style=&quot;white-space: pre;&quot;&gt; &lt;span style=&quot;white-space: pre;&quot;&gt; &lt;span style=&quot;white-space: pre;&quot;&gt; &lt;/span&gt;&lt;/span&gt;&lt;/span&gt;口" style="rounded=1;whiteSpace=wrap;html=1;" parent="1" vertex="1">
          <mxGeometry x="745" y="1990" width="470" height="23.75" as="geometry" />
        </mxCell>
        <mxCell id="Jm2Hufen4dtFJxHupJbC-277" style="edgeStyle=orthogonalEdgeStyle;rounded=0;orthogonalLoop=1;jettySize=auto;html=1;exitX=0.5;exitY=0;exitDx=0;exitDy=0;entryX=0.5;entryY=0;entryDx=0;entryDy=0;" parent="1" source="Jm2Hufen4dtFJxHupJbC-262" target="Jm2Hufen4dtFJxHupJbC-142" edge="1">
          <mxGeometry relative="1" as="geometry">
            <Array as="points">
              <mxPoint x="1305" y="1100" />
              <mxPoint x="645" y="1100" />
            </Array>
          </mxGeometry>
        </mxCell>
        <mxCell id="Jm2Hufen4dtFJxHupJbC-262" value="解&lt;br&gt;&lt;br&gt;决&lt;br&gt;&lt;br&gt;错&lt;br&gt;&lt;br&gt;误" style="rounded=1;whiteSpace=wrap;html=1;" parent="1" vertex="1">
          <mxGeometry x="1290" y="1379" width="30" height="470" as="geometry" />
        </mxCell>
        <mxCell id="Jm2Hufen4dtFJxHupJbC-283" style="edgeStyle=orthogonalEdgeStyle;rounded=0;orthogonalLoop=1;jettySize=auto;html=1;" parent="1" source="Jm2Hufen4dtFJxHupJbC-279" target="Jm2Hufen4dtFJxHupJbC-282" edge="1">
          <mxGeometry relative="1" as="geometry" />
        </mxCell>
        <mxCell id="Jm2Hufen4dtFJxHupJbC-279" value="&lt;p style=&quot;line-height: 30%;&quot; data-pm-slice=&quot;1 1 []&quot;&gt;PUT响应&lt;/p&gt;" style="rounded=1;whiteSpace=wrap;html=1;align=center;" parent="1" vertex="1">
          <mxGeometry x="240" y="907.5" width="75" height="25" as="geometry" />
        </mxCell>
        <mxCell id="Jm2Hufen4dtFJxHupJbC-282" value="DONE" style="shape=hexagon;perimeter=hexagonPerimeter2;whiteSpace=wrap;html=1;fixedSize=1;size=7.5;" parent="1" vertex="1">
          <mxGeometry x="241.25" y="960" width="72.5" height="20" as="geometry" />
        </mxCell>
        <mxCell id="XDoq-C1qo8DsWmTua-bT-11" style="edgeStyle=orthogonalEdgeStyle;rounded=0;orthogonalLoop=1;jettySize=auto;html=1;" parent="1" source="XDoq-C1qo8DsWmTua-bT-7" target="Jm2Hufen4dtFJxHupJbC-279" edge="1">
          <mxGeometry relative="1" as="geometry" />
        </mxCell>
        <mxCell id="XDoq-C1qo8DsWmTua-bT-7" value="PUT修改" style="swimlane;fontStyle=0;childLayout=stackLayout;horizontal=1;startSize=30;horizontalStack=0;resizeParent=1;resizeParentMax=0;resizeLast=0;collapsible=1;marginBottom=0;whiteSpace=wrap;html=1;" parent="1" vertex="1">
          <mxGeometry x="192.5" y="700" width="170" height="120" as="geometry" />
        </mxCell>
        <mxCell id="XDoq-C1qo8DsWmTua-bT-8" value="新增论文项&lt;br&gt;op:insert; data: 所有字段" style="text;strokeColor=none;fillColor=none;align=left;verticalAlign=middle;spacingLeft=4;spacingRight=4;overflow=hidden;points=[[0,0.5],[1,0.5]];portConstraint=eastwest;rotatable=0;whiteSpace=wrap;html=1;" parent="XDoq-C1qo8DsWmTua-bT-7" vertex="1">
          <mxGeometry y="30" width="170" height="30" as="geometry" />
        </mxCell>
        <mxCell id="XDoq-C1qo8DsWmTua-bT-9" value="修改属性&lt;br&gt;op:update; data: 仅更新字段" style="text;strokeColor=none;fillColor=none;align=left;verticalAlign=middle;spacingLeft=4;spacingRight=4;overflow=hidden;points=[[0,0.5],[1,0.5]];portConstraint=eastwest;rotatable=0;whiteSpace=wrap;html=1;" parent="XDoq-C1qo8DsWmTua-bT-7" vertex="1">
          <mxGeometry y="60" width="170" height="30" as="geometry" />
        </mxCell>
        <mxCell id="XDoq-C1qo8DsWmTua-bT-10" value="删除PDF&lt;br&gt;op:delete; data: null" style="text;strokeColor=none;fillColor=none;align=left;verticalAlign=middle;spacingLeft=4;spacingRight=4;overflow=hidden;points=[[0,0.5],[1,0.5]];portConstraint=eastwest;rotatable=0;whiteSpace=wrap;html=1;" parent="XDoq-C1qo8DsWmTua-bT-7" vertex="1">
          <mxGeometry y="90" width="170" height="30" as="geometry" />
        </mxCell>
        <mxCell id="XDoq-C1qo8DsWmTua-bT-19" value="&lt;font style=&quot;font-size: 18px;&quot;&gt;同步字段&lt;/font&gt;" style="swimlane;fontStyle=0;childLayout=stackLayout;horizontal=1;startSize=30;horizontalStack=0;resizeParent=1;resizeParentMax=0;resizeLast=0;collapsible=1;marginBottom=0;whiteSpace=wrap;html=1;" parent="1" vertex="1">
          <mxGeometry x="46.25" y="-440" width="390" height="730" as="geometry" />
        </mxCell>
        <mxCell id="XDoq-C1qo8DsWmTua-bT-20" value="&lt;font style=&quot;font-size: 18px;&quot;&gt;reading id&lt;/font&gt;" style="text;strokeColor=none;fillColor=none;align=left;verticalAlign=middle;spacingLeft=4;spacingRight=4;overflow=hidden;points=[[0,0.5],[1,0.5]];portConstraint=eastwest;rotatable=0;whiteSpace=wrap;html=1;" parent="XDoq-C1qo8DsWmTua-bT-19" vertex="1">
          <mxGeometry y="30" width="390" height="50" as="geometry" />
        </mxCell>
        <mxCell id="XDoq-C1qo8DsWmTua-bT-21" value="&lt;font size=&quot;4&quot;&gt;type&lt;/font&gt;" style="text;strokeColor=none;fillColor=none;align=left;verticalAlign=middle;spacingLeft=4;spacingRight=4;overflow=hidden;points=[[0,0.5],[1,0.5]];portConstraint=eastwest;rotatable=0;whiteSpace=wrap;html=1;" parent="XDoq-C1qo8DsWmTua-bT-19" vertex="1">
          <mxGeometry y="80" width="390" height="50" as="geometry" />
        </mxCell>
        <mxCell id="XDoq-C1qo8DsWmTua-bT-22" value="&lt;font size=&quot;4&quot;&gt;name&lt;/font&gt;" style="text;strokeColor=none;fillColor=none;align=left;verticalAlign=middle;spacingLeft=4;spacingRight=4;overflow=hidden;points=[[0,0.5],[1,0.5]];portConstraint=eastwest;rotatable=0;whiteSpace=wrap;html=1;" parent="XDoq-C1qo8DsWmTua-bT-19" vertex="1">
          <mxGeometry y="130" width="390" height="50" as="geometry" />
        </mxCell>
        <mxCell id="XDoq-C1qo8DsWmTua-bT-37" value="&lt;font style=&quot;font-size: 18px;&quot;&gt;title&lt;/font&gt;" style="text;strokeColor=none;fillColor=none;align=left;verticalAlign=middle;spacingLeft=4;spacingRight=4;overflow=hidden;points=[[0,0.5],[1,0.5]];portConstraint=eastwest;rotatable=0;whiteSpace=wrap;html=1;" parent="XDoq-C1qo8DsWmTua-bT-19" vertex="1">
          <mxGeometry y="180" width="390" height="50" as="geometry" />
        </mxCell>
        <mxCell id="XDoq-C1qo8DsWmTua-bT-36" value="&lt;font style=&quot;font-size: 18px;&quot;&gt;authors&lt;/font&gt;" style="text;strokeColor=none;fillColor=none;align=left;verticalAlign=middle;spacingLeft=4;spacingRight=4;overflow=hidden;points=[[0,0.5],[1,0.5]];portConstraint=eastwest;rotatable=0;whiteSpace=wrap;html=1;" parent="XDoq-C1qo8DsWmTua-bT-19" vertex="1">
          <mxGeometry y="230" width="390" height="50" as="geometry" />
        </mxCell>
        <mxCell id="XDoq-C1qo8DsWmTua-bT-35" value="&lt;font style=&quot;font-size: 18px;&quot;&gt;url&lt;/font&gt;" style="text;strokeColor=none;fillColor=none;align=left;verticalAlign=middle;spacingLeft=4;spacingRight=4;overflow=hidden;points=[[0,0.5],[1,0.5]];portConstraint=eastwest;rotatable=0;whiteSpace=wrap;html=1;" parent="XDoq-C1qo8DsWmTua-bT-19" vertex="1">
          <mxGeometry y="280" width="390" height="50" as="geometry" />
        </mxCell>
        <mxCell id="XDoq-C1qo8DsWmTua-bT-34" value="&lt;font style=&quot;font-size: 18px;&quot;&gt;link&lt;/font&gt;" style="text;strokeColor=none;fillColor=none;align=left;verticalAlign=middle;spacingLeft=4;spacingRight=4;overflow=hidden;points=[[0,0.5],[1,0.5]];portConstraint=eastwest;rotatable=0;whiteSpace=wrap;html=1;" parent="XDoq-C1qo8DsWmTua-bT-19" vertex="1">
          <mxGeometry y="330" width="390" height="50" as="geometry" />
        </mxCell>
        <mxCell id="XDoq-C1qo8DsWmTua-bT-33" value="&lt;font style=&quot;font-size: 18px;&quot;&gt;hash&lt;/font&gt;" style="text;strokeColor=none;fillColor=none;align=left;verticalAlign=middle;spacingLeft=4;spacingRight=4;overflow=hidden;points=[[0,0.5],[1,0.5]];portConstraint=eastwest;rotatable=0;whiteSpace=wrap;html=1;" parent="XDoq-C1qo8DsWmTua-bT-19" vertex="1">
          <mxGeometry y="380" width="390" height="50" as="geometry" />
        </mxCell>
        <mxCell id="XDoq-C1qo8DsWmTua-bT-32" value="&lt;font style=&quot;font-size: 18px;&quot;&gt;Content type&lt;/font&gt;" style="text;strokeColor=none;fillColor=none;align=left;verticalAlign=middle;spacingLeft=4;spacingRight=4;overflow=hidden;points=[[0,0.5],[1,0.5]];portConstraint=eastwest;rotatable=0;whiteSpace=wrap;html=1;" parent="XDoq-C1qo8DsWmTua-bT-19" vertex="1">
          <mxGeometry y="430" width="390" height="50" as="geometry" />
        </mxCell>
        <mxCell id="XDoq-C1qo8DsWmTua-bT-31" value="&lt;font style=&quot;font-size: 18px;&quot;&gt;paper id&lt;/font&gt;" style="text;strokeColor=none;fillColor=none;align=left;verticalAlign=middle;spacingLeft=4;spacingRight=4;overflow=hidden;points=[[0,0.5],[1,0.5]];portConstraint=eastwest;rotatable=0;whiteSpace=wrap;html=1;" parent="XDoq-C1qo8DsWmTua-bT-19" vertex="1">
          <mxGeometry y="480" width="390" height="50" as="geometry" />
        </mxCell>
        <mxCell id="XDoq-C1qo8DsWmTua-bT-30" value="&lt;font style=&quot;font-size: 18px;&quot;&gt;share id&lt;/font&gt;" style="text;strokeColor=none;fillColor=none;align=left;verticalAlign=middle;spacingLeft=4;spacingRight=4;overflow=hidden;points=[[0,0.5],[1,0.5]];portConstraint=eastwest;rotatable=0;whiteSpace=wrap;html=1;" parent="XDoq-C1qo8DsWmTua-bT-19" vertex="1">
          <mxGeometry y="530" width="390" height="50" as="geometry" />
        </mxCell>
        <mxCell id="XDoq-C1qo8DsWmTua-bT-29" value="&lt;font style=&quot;font-size: 18px;&quot;&gt;read at&lt;/font&gt;" style="text;strokeColor=none;fillColor=none;align=left;verticalAlign=middle;spacingLeft=4;spacingRight=4;overflow=hidden;points=[[0,0.5],[1,0.5]];portConstraint=eastwest;rotatable=0;whiteSpace=wrap;html=1;" parent="XDoq-C1qo8DsWmTua-bT-19" vertex="1">
          <mxGeometry y="580" width="390" height="50" as="geometry" />
        </mxCell>
        <mxCell id="XDoq-C1qo8DsWmTua-bT-28" value="&lt;font style=&quot;font-size: 18px;&quot;&gt;create at&lt;/font&gt;" style="text;strokeColor=none;fillColor=none;align=left;verticalAlign=middle;spacingLeft=4;spacingRight=4;overflow=hidden;points=[[0,0.5],[1,0.5]];portConstraint=eastwest;rotatable=0;whiteSpace=wrap;html=1;" parent="XDoq-C1qo8DsWmTua-bT-19" vertex="1">
          <mxGeometry y="630" width="390" height="50" as="geometry" />
        </mxCell>
        <mxCell id="XDoq-C1qo8DsWmTua-bT-27" value="&lt;font style=&quot;font-size: 18px;&quot;&gt;update at&lt;/font&gt;" style="text;strokeColor=none;fillColor=none;align=left;verticalAlign=middle;spacingLeft=4;spacingRight=4;overflow=hidden;points=[[0,0.5],[1,0.5]];portConstraint=eastwest;rotatable=0;whiteSpace=wrap;html=1;" parent="XDoq-C1qo8DsWmTua-bT-19" vertex="1">
          <mxGeometry y="680" width="390" height="50" as="geometry" />
        </mxCell>
        <mxCell id="XDoq-C1qo8DsWmTua-bT-48" style="edgeStyle=orthogonalEdgeStyle;rounded=0;orthogonalLoop=1;jettySize=auto;html=1;entryX=0;entryY=0.5;entryDx=0;entryDy=0;" parent="1" source="XDoq-C1qo8DsWmTua-bT-40" target="Jm2Hufen4dtFJxHupJbC-262" edge="1">
          <mxGeometry relative="1" as="geometry">
            <Array as="points">
              <mxPoint x="1250" y="1310" />
              <mxPoint x="1250" y="1614" />
            </Array>
          </mxGeometry>
        </mxCell>
        <mxCell id="XDoq-C1qo8DsWmTua-bT-40" value="后端接受未处理&lt;br&gt;重试" style="rounded=1;whiteSpace=wrap;html=1;" parent="1" vertex="1">
          <mxGeometry x="1127.5" y="1295" width="105" height="30" as="geometry" />
        </mxCell>
        <mxCell id="XDoq-C1qo8DsWmTua-bT-42" style="edgeStyle=orthogonalEdgeStyle;rounded=0;orthogonalLoop=1;jettySize=auto;html=1;" parent="1" source="Jm2Hufen4dtFJxHupJbC-150" target="XDoq-C1qo8DsWmTua-bT-40" edge="1">
          <mxGeometry relative="1" as="geometry" />
        </mxCell>
        <mxCell id="XDoq-C1qo8DsWmTua-bT-49" style="edgeStyle=orthogonalEdgeStyle;rounded=0;orthogonalLoop=1;jettySize=auto;html=1;entryX=0;entryY=0.5;entryDx=0;entryDy=0;" parent="1" source="XDoq-C1qo8DsWmTua-bT-43" target="Jm2Hufen4dtFJxHupJbC-262" edge="1">
          <mxGeometry relative="1" as="geometry">
            <Array as="points">
              <mxPoint x="1250" y="1515" />
              <mxPoint x="1250" y="1614" />
            </Array>
          </mxGeometry>
        </mxCell>
        <mxCell id="XDoq-C1qo8DsWmTua-bT-43" value="后端接受未处理&lt;br&gt;可能是Event-1出错" style="rounded=1;whiteSpace=wrap;html=1;" parent="1" vertex="1">
          <mxGeometry x="1127.5" y="1500" width="105" height="30" as="geometry" />
        </mxCell>
        <mxCell id="XDoq-C1qo8DsWmTua-bT-44" style="edgeStyle=orthogonalEdgeStyle;rounded=0;orthogonalLoop=1;jettySize=auto;html=1;" parent="1" source="Jm2Hufen4dtFJxHupJbC-200" target="XDoq-C1qo8DsWmTua-bT-43" edge="1">
          <mxGeometry relative="1" as="geometry" />
        </mxCell>
        <mxCell id="XDoq-C1qo8DsWmTua-bT-47" style="edgeStyle=orthogonalEdgeStyle;rounded=0;orthogonalLoop=1;jettySize=auto;html=1;entryX=0;entryY=0.5;entryDx=0;entryDy=0;" parent="1" source="XDoq-C1qo8DsWmTua-bT-45" target="Jm2Hufen4dtFJxHupJbC-262" edge="1">
          <mxGeometry relative="1" as="geometry">
            <Array as="points">
              <mxPoint x="1250" y="1765" />
              <mxPoint x="1250" y="1614" />
            </Array>
          </mxGeometry>
        </mxCell>
        <mxCell id="XDoq-C1qo8DsWmTua-bT-45" value="后端接受未处理&lt;br&gt;可能是Event-k出错" style="rounded=1;whiteSpace=wrap;html=1;" parent="1" vertex="1">
          <mxGeometry x="1127.5" y="1750" width="105" height="30" as="geometry" />
        </mxCell>
        <mxCell id="XDoq-C1qo8DsWmTua-bT-46" style="edgeStyle=orthogonalEdgeStyle;rounded=0;orthogonalLoop=1;jettySize=auto;html=1;exitX=1;exitY=0.5;exitDx=0;exitDy=0;" parent="1" source="Jm2Hufen4dtFJxHupJbC-216" target="XDoq-C1qo8DsWmTua-bT-45" edge="1">
          <mxGeometry relative="1" as="geometry" />
        </mxCell>
        <mxCell id="XDoq-C1qo8DsWmTua-bT-51" value="&lt;font style=&quot;font-size: 12px;&quot;&gt;同步&lt;/font&gt;" style="rounded=1;whiteSpace=wrap;html=1;" parent="1" vertex="1">
          <mxGeometry x="267.5" y="1105.5" width="90" height="30" as="geometry" />
        </mxCell>
        <mxCell id="XDoq-C1qo8DsWmTua-bT-52" style="edgeStyle=orthogonalEdgeStyle;rounded=0;orthogonalLoop=1;jettySize=auto;html=1;" parent="1" source="XDoq-C1qo8DsWmTua-bT-51" target="XDoq-C1qo8DsWmTua-bT-58" edge="1">
          <mxGeometry relative="1" as="geometry">
            <mxPoint x="305" y="1085.5" as="sourcePoint" />
          </mxGeometry>
        </mxCell>
        <mxCell id="XDoq-C1qo8DsWmTua-bT-56" style="edgeStyle=orthogonalEdgeStyle;rounded=0;orthogonalLoop=1;jettySize=auto;html=1;entryX=0.5;entryY=0;entryDx=0;entryDy=0;" parent="1" source="XDoq-C1qo8DsWmTua-bT-58" target="XDoq-C1qo8DsWmTua-bT-71" edge="1">
          <mxGeometry relative="1" as="geometry">
            <mxPoint x="312.5" y="1364.25" as="targetPoint" />
          </mxGeometry>
        </mxCell>
        <mxCell id="XDoq-C1qo8DsWmTua-bT-57" style="edgeStyle=orthogonalEdgeStyle;rounded=0;orthogonalLoop=1;jettySize=auto;html=1;entryX=0;entryY=0.5;entryDx=0;entryDy=0;" parent="1" source="XDoq-C1qo8DsWmTua-bT-58" target="XDoq-C1qo8DsWmTua-bT-60" edge="1">
          <mxGeometry relative="1" as="geometry" />
        </mxCell>
        <mxCell id="XDoq-C1qo8DsWmTua-bT-58" value="上传PDF？" style="rhombus;whiteSpace=wrap;html=1;" parent="1" vertex="1">
          <mxGeometry x="255" y="1179.25" width="115" height="50" as="geometry" />
        </mxCell>
        <mxCell id="XDoq-C1qo8DsWmTua-bT-59" style="edgeStyle=orthogonalEdgeStyle;rounded=0;orthogonalLoop=1;jettySize=auto;html=1;" parent="1" source="XDoq-C1qo8DsWmTua-bT-60" target="XDoq-C1qo8DsWmTua-bT-62" edge="1">
          <mxGeometry relative="1" as="geometry" />
        </mxCell>
        <mxCell id="XDoq-C1qo8DsWmTua-bT-60" value="&lt;p style=&quot;line-height: 30%;&quot; data-pm-slice=&quot;1 1 []&quot;&gt;上传PDF&lt;/p&gt;" style="rounded=1;whiteSpace=wrap;html=1;align=center;" parent="1" vertex="1">
          <mxGeometry x="432.5" y="1189.25" width="80" height="30" as="geometry" />
        </mxCell>
        <mxCell id="XDoq-C1qo8DsWmTua-bT-61" style="edgeStyle=orthogonalEdgeStyle;rounded=0;orthogonalLoop=1;jettySize=auto;html=1;exitX=0.5;exitY=1;exitDx=0;exitDy=0;" parent="1" source="XDoq-C1qo8DsWmTua-bT-62" target="XDoq-C1qo8DsWmTua-bT-64" edge="1">
          <mxGeometry relative="1" as="geometry" />
        </mxCell>
        <mxCell id="XDoq-C1qo8DsWmTua-bT-62" value="&lt;p style=&quot;line-height: 30%;&quot; data-pm-slice=&quot;1 1 []&quot;&gt;获取链接&lt;/p&gt;" style="rounded=1;whiteSpace=wrap;html=1;align=center;" parent="1" vertex="1">
          <mxGeometry x="432.5" y="1279.25" width="80" height="30" as="geometry" />
        </mxCell>
        <mxCell id="XDoq-C1qo8DsWmTua-bT-63" style="edgeStyle=orthogonalEdgeStyle;rounded=0;orthogonalLoop=1;jettySize=auto;html=1;" parent="1" source="XDoq-C1qo8DsWmTua-bT-64" target="XDoq-C1qo8DsWmTua-bT-71" edge="1">
          <mxGeometry relative="1" as="geometry">
            <mxPoint x="382.5" y="1384.25" as="targetPoint" />
          </mxGeometry>
        </mxCell>
        <mxCell id="XDoq-C1qo8DsWmTua-bT-64" value="&lt;p style=&quot;line-height: 30%;&quot; data-pm-slice=&quot;1 1 []&quot;&gt;请求生成&lt;/p&gt;&lt;p style=&quot;line-height: 30%;&quot; data-pm-slice=&quot;1 1 []&quot;&gt;Share ID&lt;/p&gt;" style="rounded=1;whiteSpace=wrap;html=1;align=center;" parent="1" vertex="1">
          <mxGeometry x="427.5" y="1349.25" width="90" height="40" as="geometry" />
        </mxCell>
        <mxCell id="XDoq-C1qo8DsWmTua-bT-65" value="Yes" style="text;html=1;align=center;verticalAlign=middle;resizable=0;points=[];autosize=1;strokeColor=none;fillColor=none;" parent="1" vertex="1">
          <mxGeometry x="375" y="1179.25" width="40" height="30" as="geometry" />
        </mxCell>
        <mxCell id="XDoq-C1qo8DsWmTua-bT-66" value="No" style="text;html=1;align=center;verticalAlign=middle;resizable=0;points=[];autosize=1;strokeColor=none;fillColor=none;" parent="1" vertex="1">
          <mxGeometry x="267.5" y="1229.25" width="40" height="30" as="geometry" />
        </mxCell>
        <mxCell id="XDoq-C1qo8DsWmTua-bT-68" value="&lt;p style=&quot;line-height: 30%;&quot; data-pm-slice=&quot;1 1 []&quot;&gt;PUT响应&lt;/p&gt;" style="rounded=1;whiteSpace=wrap;html=1;align=center;" parent="1" vertex="1">
          <mxGeometry x="275" y="1470.5" width="75" height="25" as="geometry" />
        </mxCell>
        <mxCell id="XDoq-C1qo8DsWmTua-bT-69" value="DONE" style="shape=hexagon;perimeter=hexagonPerimeter2;whiteSpace=wrap;html=1;fixedSize=1;size=7.5;" parent="1" vertex="1">
          <mxGeometry x="276.25" y="1554.5" width="72.5" height="20" as="geometry" />
        </mxCell>
        <mxCell id="XDoq-C1qo8DsWmTua-bT-70" style="edgeStyle=orthogonalEdgeStyle;rounded=0;orthogonalLoop=1;jettySize=auto;html=1;" parent="1" source="XDoq-C1qo8DsWmTua-bT-71" target="XDoq-C1qo8DsWmTua-bT-68" edge="1">
          <mxGeometry relative="1" as="geometry" />
        </mxCell>
        <mxCell id="XDoq-C1qo8DsWmTua-bT-71" value="PUT修改" style="swimlane;fontStyle=0;childLayout=stackLayout;horizontal=1;startSize=30;horizontalStack=0;resizeParent=1;resizeParentMax=0;resizeLast=0;collapsible=1;marginBottom=0;whiteSpace=wrap;html=1;" parent="1" vertex="1">
          <mxGeometry x="227.5" y="1309.25" width="170" height="120" as="geometry" />
        </mxCell>
        <mxCell id="XDoq-C1qo8DsWmTua-bT-72" value="新增论文项&lt;br&gt;op:insert; data: 所有字段" style="text;strokeColor=none;fillColor=none;align=left;verticalAlign=middle;spacingLeft=4;spacingRight=4;overflow=hidden;points=[[0,0.5],[1,0.5]];portConstraint=eastwest;rotatable=0;whiteSpace=wrap;html=1;" parent="XDoq-C1qo8DsWmTua-bT-71" vertex="1">
          <mxGeometry y="30" width="170" height="30" as="geometry" />
        </mxCell>
        <mxCell id="XDoq-C1qo8DsWmTua-bT-73" value="修改属性&lt;br&gt;op:update; data: 仅更新字段" style="text;strokeColor=none;fillColor=none;align=left;verticalAlign=middle;spacingLeft=4;spacingRight=4;overflow=hidden;points=[[0,0.5],[1,0.5]];portConstraint=eastwest;rotatable=0;whiteSpace=wrap;html=1;" parent="XDoq-C1qo8DsWmTua-bT-71" vertex="1">
          <mxGeometry y="60" width="170" height="30" as="geometry" />
        </mxCell>
        <mxCell id="XDoq-C1qo8DsWmTua-bT-74" value="删除PDF&lt;br&gt;op:delete; data: null" style="text;strokeColor=none;fillColor=none;align=left;verticalAlign=middle;spacingLeft=4;spacingRight=4;overflow=hidden;points=[[0,0.5],[1,0.5]];portConstraint=eastwest;rotatable=0;whiteSpace=wrap;html=1;" parent="XDoq-C1qo8DsWmTua-bT-71" vertex="1">
          <mxGeometry y="90" width="170" height="30" as="geometry" />
        </mxCell>
        <mxCell id="XDoq-C1qo8DsWmTua-bT-75" value="&lt;h1&gt;先Pull后Push&lt;/h1&gt;" style="text;html=1;strokeColor=none;fillColor=none;spacing=5;spacingTop=-20;whiteSpace=wrap;overflow=hidden;rounded=0;" parent="1" vertex="1">
          <mxGeometry x="-35" y="480" width="190" height="120" as="geometry" />
        </mxCell>
        <mxCell id="XDoq-C1qo8DsWmTua-bT-76" value="&lt;h1&gt;先Push后Pull&lt;/h1&gt;" style="text;html=1;strokeColor=none;fillColor=none;spacing=5;spacingTop=-20;whiteSpace=wrap;overflow=hidden;rounded=0;" parent="1" vertex="1">
          <mxGeometry x="-35" y="1105.5" width="190" height="120" as="geometry" />
        </mxCell>
        <mxCell id="XDoq-C1qo8DsWmTua-bT-79" style="edgeStyle=orthogonalEdgeStyle;rounded=0;orthogonalLoop=1;jettySize=auto;html=1;exitX=0.5;exitY=1;exitDx=0;exitDy=0;" parent="1" source="XDoq-C1qo8DsWmTua-bT-68" target="XDoq-C1qo8DsWmTua-bT-69" edge="1">
          <mxGeometry relative="1" as="geometry">
            <mxPoint x="312.47058823529414" y="1577.9872122762144" as="sourcePoint" />
          </mxGeometry>
        </mxCell>
        <mxCell id="XDoq-C1qo8DsWmTua-bT-85" value="Event-k 响应状态码" style="swimlane;fontStyle=0;childLayout=stackLayout;horizontal=1;startSize=30;horizontalStack=0;resizeParent=1;resizeParentMax=0;resizeLast=0;collapsible=1;marginBottom=0;whiteSpace=wrap;html=1;" parent="1" vertex="1">
          <mxGeometry x="1770" y="1495" width="157.5" height="280" as="geometry">
            <mxRectangle x="890" y="1400" width="100" height="30" as="alternateBounds" />
          </mxGeometry>
        </mxCell>
        <mxCell id="XDoq-C1qo8DsWmTua-bT-86" value="202 &amp;nbsp;Accepted&lt;br&gt;" style="text;strokeColor=none;fillColor=none;align=left;verticalAlign=middle;spacingLeft=4;spacingRight=4;overflow=hidden;points=[[0,0.5],[1,0.5]];portConstraint=eastwest;rotatable=0;whiteSpace=wrap;html=1;" parent="XDoq-C1qo8DsWmTua-bT-85" vertex="1">
          <mxGeometry y="30" width="157.5" height="50" as="geometry" />
        </mxCell>
        <mxCell id="XDoq-C1qo8DsWmTua-bT-87" value="200 &amp;nbsp;OK" style="text;strokeColor=none;fillColor=none;align=left;verticalAlign=middle;spacingLeft=4;spacingRight=4;overflow=hidden;points=[[0,0.5],[1,0.5]];portConstraint=eastwest;rotatable=0;whiteSpace=wrap;html=1;" parent="XDoq-C1qo8DsWmTua-bT-85" vertex="1">
          <mxGeometry y="80" width="157.5" height="50" as="geometry" />
        </mxCell>
        <mxCell id="XDoq-C1qo8DsWmTua-bT-88" value="422 Unprocessable Entity" style="text;strokeColor=none;fillColor=none;align=left;verticalAlign=middle;spacingLeft=4;spacingRight=4;overflow=hidden;points=[[0,0.5],[1,0.5]];portConstraint=eastwest;rotatable=0;whiteSpace=wrap;html=1;" parent="XDoq-C1qo8DsWmTua-bT-85" vertex="1">
          <mxGeometry y="130" width="157.5" height="50" as="geometry" />
        </mxCell>
        <mxCell id="XDoq-C1qo8DsWmTua-bT-89" value="409 Conflict" style="text;strokeColor=none;fillColor=none;align=left;verticalAlign=middle;spacingLeft=4;spacingRight=4;overflow=hidden;points=[[0,0.5],[1,0.5]];portConstraint=eastwest;rotatable=0;whiteSpace=wrap;html=1;" parent="XDoq-C1qo8DsWmTua-bT-85" vertex="1">
          <mxGeometry y="180" width="157.5" height="50" as="geometry" />
        </mxCell>
        <mxCell id="XDoq-C1qo8DsWmTua-bT-90" value="500 Retry" style="text;strokeColor=none;fillColor=none;align=left;verticalAlign=middle;spacingLeft=4;spacingRight=4;overflow=hidden;points=[[0,0.5],[1,0.5]];portConstraint=eastwest;rotatable=0;whiteSpace=wrap;html=1;" parent="XDoq-C1qo8DsWmTua-bT-85" vertex="1">
          <mxGeometry y="230" width="157.5" height="50" as="geometry" />
        </mxCell>
        <mxCell id="XDoq-C1qo8DsWmTua-bT-92" value="解决首个错误的event，解决后下次PUT时同时携带该Event" style="rounded=1;whiteSpace=wrap;html=1;" parent="1" vertex="1">
          <mxGeometry x="1980" y="1527" width="180" height="46" as="geometry" />
        </mxCell>
        <mxCell id="XDoq-C1qo8DsWmTua-bT-91" style="edgeStyle=orthogonalEdgeStyle;rounded=0;orthogonalLoop=1;jettySize=auto;html=1;" parent="1" source="XDoq-C1qo8DsWmTua-bT-86" target="XDoq-C1qo8DsWmTua-bT-92" edge="1">
          <mxGeometry relative="1" as="geometry">
            <mxPoint x="2030" y="1540" as="targetPoint" />
          </mxGeometry>
        </mxCell>
        <mxCell id="XDoq-C1qo8DsWmTua-bT-93" value="第k个event同步成功&lt;br&gt;继续看第k+1次" style="rounded=1;whiteSpace=wrap;html=1;" parent="1" vertex="1">
          <mxGeometry x="1560" y="1577.75" width="180" height="46" as="geometry" />
        </mxCell>
        <mxCell id="XDoq-C1qo8DsWmTua-bT-94" style="edgeStyle=orthogonalEdgeStyle;rounded=0;orthogonalLoop=1;jettySize=auto;html=1;" parent="1" source="XDoq-C1qo8DsWmTua-bT-87" target="XDoq-C1qo8DsWmTua-bT-93" edge="1">
          <mxGeometry relative="1" as="geometry" />
        </mxCell>
        <mxCell id="XDoq-C1qo8DsWmTua-bT-95" value="完全同步后，下一次PUT以该event-k为1号结点同步" style="rounded=1;whiteSpace=wrap;html=1;" parent="1" vertex="1">
          <mxGeometry x="1980" y="1627" width="180" height="46" as="geometry" />
        </mxCell>
        <mxCell id="XDoq-C1qo8DsWmTua-bT-96" style="edgeStyle=orthogonalEdgeStyle;rounded=0;orthogonalLoop=1;jettySize=auto;html=1;" parent="1" source="XDoq-C1qo8DsWmTua-bT-88" target="XDoq-C1qo8DsWmTua-bT-95" edge="1">
          <mxGeometry relative="1" as="geometry" />
        </mxCell>
        <mxCell id="XDoq-C1qo8DsWmTua-bT-97" value="直接重试，下一次PUT以该event为1号结点同步" style="rounded=1;whiteSpace=wrap;html=1;" parent="1" vertex="1">
          <mxGeometry x="1980" y="1727" width="180" height="46" as="geometry" />
        </mxCell>
        <mxCell id="XDoq-C1qo8DsWmTua-bT-98" style="edgeStyle=orthogonalEdgeStyle;rounded=0;orthogonalLoop=1;jettySize=auto;html=1;" parent="1" source="XDoq-C1qo8DsWmTua-bT-90" target="XDoq-C1qo8DsWmTua-bT-97" edge="1">
          <mxGeometry relative="1" as="geometry" />
        </mxCell>
        <mxCell id="XDoq-C1qo8DsWmTua-bT-99" value="&lt;h1&gt;两种方案&lt;/h1&gt;&lt;div&gt;暂选push-&amp;gt;pull&lt;/div&gt;&lt;div&gt;&lt;br&gt;&lt;/div&gt;" style="text;html=1;strokeColor=none;fillColor=none;spacing=5;spacingTop=-20;whiteSpace=wrap;overflow=hidden;rounded=0;" parent="1" vertex="1">
          <mxGeometry x="-90" y="880" width="190" height="120" as="geometry" />
        </mxCell>
        <mxCell id="WFNrEJCBRctV55279hQL-1" value="TODO: 解决冲突" style="rounded=1;whiteSpace=wrap;html=1;" parent="1" vertex="1">
          <mxGeometry x="1978" y="1677" width="180" height="46" as="geometry" />
        </mxCell>
        <mxCell id="WFNrEJCBRctV55279hQL-2" style="edgeStyle=orthogonalEdgeStyle;rounded=0;orthogonalLoop=1;jettySize=auto;html=1;exitX=1;exitY=0.5;exitDx=0;exitDy=0;" parent="1" source="XDoq-C1qo8DsWmTua-bT-89" target="WFNrEJCBRctV55279hQL-1" edge="1">
          <mxGeometry relative="1" as="geometry" />
        </mxCell>
        <mxCell id="q6Fosyw1V_CmT3SRMPMA-3" style="edgeStyle=orthogonalEdgeStyle;rounded=0;orthogonalLoop=1;jettySize=auto;html=1;" edge="1" parent="1" source="q6Fosyw1V_CmT3SRMPMA-1" target="q6Fosyw1V_CmT3SRMPMA-2">
          <mxGeometry relative="1" as="geometry" />
        </mxCell>
        <mxCell id="q6Fosyw1V_CmT3SRMPMA-54" style="edgeStyle=orthogonalEdgeStyle;rounded=0;orthogonalLoop=1;jettySize=auto;html=1;" edge="1" parent="1" source="q6Fosyw1V_CmT3SRMPMA-1" target="q6Fosyw1V_CmT3SRMPMA-53">
          <mxGeometry relative="1" as="geometry">
            <Array as="points">
              <mxPoint x="-845" y="-290" />
              <mxPoint x="-1310" y="-290" />
            </Array>
          </mxGeometry>
        </mxCell>
        <mxCell id="q6Fosyw1V_CmT3SRMPMA-1" value="APP启动" style="rounded=1;whiteSpace=wrap;html=1;" vertex="1" parent="1">
          <mxGeometry x="-890" y="-330" width="90" height="30" as="geometry" />
        </mxCell>
        <mxCell id="q6Fosyw1V_CmT3SRMPMA-5" style="edgeStyle=orthogonalEdgeStyle;rounded=0;orthogonalLoop=1;jettySize=auto;html=1;" edge="1" parent="1" source="q6Fosyw1V_CmT3SRMPMA-2" target="q6Fosyw1V_CmT3SRMPMA-4">
          <mxGeometry relative="1" as="geometry" />
        </mxCell>
        <mxCell id="q6Fosyw1V_CmT3SRMPMA-2" value="State接口" style="rounded=1;whiteSpace=wrap;html=1;" vertex="1" parent="1">
          <mxGeometry x="-890" y="-260" width="90" height="30" as="geometry" />
        </mxCell>
        <mxCell id="q6Fosyw1V_CmT3SRMPMA-7" style="edgeStyle=orthogonalEdgeStyle;rounded=0;orthogonalLoop=1;jettySize=auto;html=1;" edge="1" parent="1" source="q6Fosyw1V_CmT3SRMPMA-4" target="q6Fosyw1V_CmT3SRMPMA-6">
          <mxGeometry relative="1" as="geometry" />
        </mxCell>
        <mxCell id="q6Fosyw1V_CmT3SRMPMA-11" style="edgeStyle=orthogonalEdgeStyle;rounded=0;orthogonalLoop=1;jettySize=auto;html=1;" edge="1" parent="1" source="q6Fosyw1V_CmT3SRMPMA-4" target="q6Fosyw1V_CmT3SRMPMA-9">
          <mxGeometry relative="1" as="geometry" />
        </mxCell>
        <mxCell id="q6Fosyw1V_CmT3SRMPMA-14" style="edgeStyle=orthogonalEdgeStyle;rounded=0;orthogonalLoop=1;jettySize=auto;html=1;" edge="1" parent="1" source="q6Fosyw1V_CmT3SRMPMA-4" target="q6Fosyw1V_CmT3SRMPMA-13">
          <mxGeometry relative="1" as="geometry" />
        </mxCell>
        <mxCell id="q6Fosyw1V_CmT3SRMPMA-4" value="有新事件？" style="rhombus;whiteSpace=wrap;html=1;" vertex="1" parent="1">
          <mxGeometry x="-905" y="-190" width="120" height="50" as="geometry" />
        </mxCell>
        <mxCell id="q6Fosyw1V_CmT3SRMPMA-17" style="edgeStyle=orthogonalEdgeStyle;rounded=0;orthogonalLoop=1;jettySize=auto;html=1;" edge="1" parent="1" source="q6Fosyw1V_CmT3SRMPMA-6" target="q6Fosyw1V_CmT3SRMPMA-15">
          <mxGeometry relative="1" as="geometry" />
        </mxCell>
        <mxCell id="q6Fosyw1V_CmT3SRMPMA-6" value="完全同步" style="rounded=0;whiteSpace=wrap;html=1;" vertex="1" parent="1">
          <mxGeometry x="-1020" y="-100" width="70" height="30" as="geometry" />
        </mxCell>
        <mxCell id="q6Fosyw1V_CmT3SRMPMA-8" value="有，需完全同步" style="text;html=1;align=center;verticalAlign=middle;resizable=0;points=[];autosize=1;strokeColor=none;fillColor=none;" vertex="1" parent="1">
          <mxGeometry x="-1000" y="-195" width="110" height="30" as="geometry" />
        </mxCell>
        <mxCell id="q6Fosyw1V_CmT3SRMPMA-19" style="edgeStyle=orthogonalEdgeStyle;rounded=0;orthogonalLoop=1;jettySize=auto;html=1;" edge="1" parent="1" source="q6Fosyw1V_CmT3SRMPMA-9" target="q6Fosyw1V_CmT3SRMPMA-18">
          <mxGeometry relative="1" as="geometry" />
        </mxCell>
        <mxCell id="q6Fosyw1V_CmT3SRMPMA-9" value="增量同步" style="rounded=0;whiteSpace=wrap;html=1;" vertex="1" parent="1">
          <mxGeometry x="-733" y="-100" width="70" height="30" as="geometry" />
        </mxCell>
        <mxCell id="q6Fosyw1V_CmT3SRMPMA-12" value="有，需增量同步" style="text;html=1;align=center;verticalAlign=middle;resizable=0;points=[];autosize=1;strokeColor=none;fillColor=none;" vertex="1" parent="1">
          <mxGeometry x="-800" y="-190" width="110" height="30" as="geometry" />
        </mxCell>
        <mxCell id="q6Fosyw1V_CmT3SRMPMA-40" style="edgeStyle=orthogonalEdgeStyle;rounded=0;orthogonalLoop=1;jettySize=auto;html=1;" edge="1" parent="1" source="q6Fosyw1V_CmT3SRMPMA-13" target="q6Fosyw1V_CmT3SRMPMA-37">
          <mxGeometry relative="1" as="geometry" />
        </mxCell>
        <mxCell id="q6Fosyw1V_CmT3SRMPMA-13" value="已最新" style="rounded=0;whiteSpace=wrap;html=1;" vertex="1" parent="1">
          <mxGeometry x="-880" y="-100" width="70" height="30" as="geometry" />
        </mxCell>
        <mxCell id="q6Fosyw1V_CmT3SRMPMA-39" style="edgeStyle=orthogonalEdgeStyle;rounded=0;orthogonalLoop=1;jettySize=auto;html=1;" edge="1" parent="1" source="q6Fosyw1V_CmT3SRMPMA-15" target="q6Fosyw1V_CmT3SRMPMA-36">
          <mxGeometry relative="1" as="geometry" />
        </mxCell>
        <mxCell id="q6Fosyw1V_CmT3SRMPMA-15" value="readings接口" style="rounded=1;whiteSpace=wrap;html=1;" vertex="1" parent="1">
          <mxGeometry x="-1025" y="-20" width="80" height="30" as="geometry" />
        </mxCell>
        <mxCell id="q6Fosyw1V_CmT3SRMPMA-21" style="edgeStyle=orthogonalEdgeStyle;rounded=0;orthogonalLoop=1;jettySize=auto;html=1;" edge="1" parent="1" source="q6Fosyw1V_CmT3SRMPMA-18" target="q6Fosyw1V_CmT3SRMPMA-20">
          <mxGeometry relative="1" as="geometry" />
        </mxCell>
        <mxCell id="q6Fosyw1V_CmT3SRMPMA-18" value="events接口" style="rounded=1;whiteSpace=wrap;html=1;" vertex="1" parent="1">
          <mxGeometry x="-590" y="-100" width="80" height="30" as="geometry" />
        </mxCell>
        <mxCell id="q6Fosyw1V_CmT3SRMPMA-24" style="edgeStyle=orthogonalEdgeStyle;rounded=0;orthogonalLoop=1;jettySize=auto;html=1;" edge="1" parent="1" source="q6Fosyw1V_CmT3SRMPMA-20" target="q6Fosyw1V_CmT3SRMPMA-23">
          <mxGeometry relative="1" as="geometry" />
        </mxCell>
        <mxCell id="q6Fosyw1V_CmT3SRMPMA-26" style="edgeStyle=orthogonalEdgeStyle;rounded=0;orthogonalLoop=1;jettySize=auto;html=1;" edge="1" parent="1" source="q6Fosyw1V_CmT3SRMPMA-20" target="q6Fosyw1V_CmT3SRMPMA-22">
          <mxGeometry relative="1" as="geometry" />
        </mxCell>
        <mxCell id="q6Fosyw1V_CmT3SRMPMA-20" value="N个新事件" style="rhombus;whiteSpace=wrap;html=1;" vertex="1" parent="1">
          <mxGeometry x="-610" y="-20" width="120" height="60" as="geometry" />
        </mxCell>
        <mxCell id="q6Fosyw1V_CmT3SRMPMA-43" style="edgeStyle=orthogonalEdgeStyle;rounded=0;orthogonalLoop=1;jettySize=auto;html=1;" edge="1" parent="1" source="q6Fosyw1V_CmT3SRMPMA-22" target="q6Fosyw1V_CmT3SRMPMA-41">
          <mxGeometry relative="1" as="geometry" />
        </mxCell>
        <mxCell id="q6Fosyw1V_CmT3SRMPMA-22" value="对比服务端下发的[eventS_1...eventS_n]和客户端上等待同步的[eventL_1...eventL_m]，&lt;br&gt;&lt;br&gt;1. 对于eventS_i的其中的更新的属性p，存在eventL_j也更新了属性p，且eventL_j.op_at &amp;gt;&amp;nbsp;eventS_i.op_at，则eventS_i的属性p在本客户端上不更新，否则更新该属性p&lt;br&gt;&lt;br&gt;2. 继续查找eventS_i的其他属性q, s, t...&lt;br&gt;&lt;br&gt;3. 继续查找下一个eventS_i+1" style="rounded=1;whiteSpace=wrap;html=1;align=left;" vertex="1" parent="1">
          <mxGeometry x="-530" y="100" width="400" height="200" as="geometry" />
        </mxCell>
        <mxCell id="q6Fosyw1V_CmT3SRMPMA-42" style="edgeStyle=orthogonalEdgeStyle;rounded=0;orthogonalLoop=1;jettySize=auto;html=1;" edge="1" parent="1" source="q6Fosyw1V_CmT3SRMPMA-23" target="q6Fosyw1V_CmT3SRMPMA-41">
          <mxGeometry relative="1" as="geometry" />
        </mxCell>
        <mxCell id="q6Fosyw1V_CmT3SRMPMA-23" value="所有event都需要更新到本地。" style="rounded=1;whiteSpace=wrap;html=1;" vertex="1" parent="1">
          <mxGeometry x="-720" y="100" width="170" height="60" as="geometry" />
        </mxCell>
        <mxCell id="q6Fosyw1V_CmT3SRMPMA-25" value="本客户端没有待同步事件" style="text;html=1;align=center;verticalAlign=middle;resizable=0;points=[];autosize=1;strokeColor=none;fillColor=none;" vertex="1" parent="1">
          <mxGeometry x="-710" y="40" width="160" height="30" as="geometry" />
        </mxCell>
        <mxCell id="q6Fosyw1V_CmT3SRMPMA-27" value="本客户端存在待同步事件" style="text;html=1;align=center;verticalAlign=middle;resizable=0;points=[];autosize=1;strokeColor=none;fillColor=none;" vertex="1" parent="1">
          <mxGeometry x="-493" y="40" width="160" height="30" as="geometry" />
        </mxCell>
        <mxCell id="q6Fosyw1V_CmT3SRMPMA-28" value="此时客户端last_event_id是啥&lt;br&gt;是否需要readings接口加个lasteventid" style="shape=callout;whiteSpace=wrap;html=1;perimeter=calloutPerimeter;position2=1;" vertex="1" parent="1">
          <mxGeometry x="-1200" y="-90" width="170" height="90" as="geometry" />
        </mxCell>
        <mxCell id="q6Fosyw1V_CmT3SRMPMA-61" style="edgeStyle=orthogonalEdgeStyle;rounded=0;orthogonalLoop=1;jettySize=auto;html=1;" edge="1" parent="1" source="q6Fosyw1V_CmT3SRMPMA-31" target="q6Fosyw1V_CmT3SRMPMA-60">
          <mxGeometry relative="1" as="geometry" />
        </mxCell>
        <mxCell id="q6Fosyw1V_CmT3SRMPMA-31" value="初始化完成" style="rounded=0;whiteSpace=wrap;html=1;" vertex="1" parent="1">
          <mxGeometry x="-1300" y="510" width="1110" height="40" as="geometry" />
        </mxCell>
        <mxCell id="q6Fosyw1V_CmT3SRMPMA-50" style="edgeStyle=orthogonalEdgeStyle;rounded=0;orthogonalLoop=1;jettySize=auto;html=1;" edge="1" parent="1" source="q6Fosyw1V_CmT3SRMPMA-36" target="q6Fosyw1V_CmT3SRMPMA-31">
          <mxGeometry relative="1" as="geometry" />
        </mxCell>
        <mxCell id="q6Fosyw1V_CmT3SRMPMA-36" value="last_event_id??" style="rounded=0;whiteSpace=wrap;html=1;" vertex="1" parent="1">
          <mxGeometry x="-1070" y="60" width="120" height="60" as="geometry" />
        </mxCell>
        <mxCell id="q6Fosyw1V_CmT3SRMPMA-51" style="edgeStyle=orthogonalEdgeStyle;rounded=0;orthogonalLoop=1;jettySize=auto;html=1;" edge="1" parent="1" source="q6Fosyw1V_CmT3SRMPMA-37" target="q6Fosyw1V_CmT3SRMPMA-31">
          <mxGeometry relative="1" as="geometry" />
        </mxCell>
        <mxCell id="q6Fosyw1V_CmT3SRMPMA-37" value="last_event_id为state接口下发的last_event_id" style="rounded=0;whiteSpace=wrap;html=1;" vertex="1" parent="1">
          <mxGeometry x="-905" y="60" width="120" height="60" as="geometry" />
        </mxCell>
        <mxCell id="q6Fosyw1V_CmT3SRMPMA-44" style="edgeStyle=orthogonalEdgeStyle;rounded=0;orthogonalLoop=1;jettySize=auto;html=1;entryX=1;entryY=0.5;entryDx=0;entryDy=0;" edge="1" parent="1" source="q6Fosyw1V_CmT3SRMPMA-41" target="q6Fosyw1V_CmT3SRMPMA-18">
          <mxGeometry relative="1" as="geometry">
            <Array as="points">
              <mxPoint x="-40" y="405" />
              <mxPoint x="-40" y="-85" />
            </Array>
          </mxGeometry>
        </mxCell>
        <mxCell id="q6Fosyw1V_CmT3SRMPMA-52" style="edgeStyle=orthogonalEdgeStyle;rounded=0;orthogonalLoop=1;jettySize=auto;html=1;" edge="1" parent="1" source="q6Fosyw1V_CmT3SRMPMA-41" target="q6Fosyw1V_CmT3SRMPMA-31">
          <mxGeometry relative="1" as="geometry" />
        </mxCell>
        <mxCell id="q6Fosyw1V_CmT3SRMPMA-41" value="state接口的last_event_id &amp;gt;&amp;nbsp;&lt;br&gt;events接口的last_event_id?" style="rhombus;whiteSpace=wrap;html=1;" vertex="1" parent="1">
          <mxGeometry x="-655" y="360" width="210" height="90" as="geometry" />
        </mxCell>
        <mxCell id="q6Fosyw1V_CmT3SRMPMA-45" value="是" style="text;html=1;align=center;verticalAlign=middle;resizable=0;points=[];autosize=1;strokeColor=none;fillColor=none;" vertex="1" parent="1">
          <mxGeometry x="-453" y="370" width="40" height="30" as="geometry" />
        </mxCell>
        <mxCell id="q6Fosyw1V_CmT3SRMPMA-46" value="本地last_event_id" style="text;html=1;align=center;verticalAlign=middle;resizable=0;points=[];autosize=1;strokeColor=none;fillColor=none;" vertex="1" parent="1">
          <mxGeometry x="-853" y="-230" width="120" height="30" as="geometry" />
        </mxCell>
        <mxCell id="q6Fosyw1V_CmT3SRMPMA-47" value="本地last_event_id" style="text;html=1;align=center;verticalAlign=middle;resizable=0;points=[];autosize=1;strokeColor=none;fillColor=none;" vertex="1" parent="1">
          <mxGeometry x="-670" y="-130" width="120" height="30" as="geometry" />
        </mxCell>
        <mxCell id="q6Fosyw1V_CmT3SRMPMA-49" value="events接口的last_event_id" style="text;html=1;align=center;verticalAlign=middle;resizable=0;points=[];autosize=1;strokeColor=none;fillColor=none;" vertex="1" parent="1">
          <mxGeometry x="-493" y="-120" width="170" height="30" as="geometry" />
        </mxCell>
        <mxCell id="q6Fosyw1V_CmT3SRMPMA-71" style="edgeStyle=orthogonalEdgeStyle;rounded=0;orthogonalLoop=1;jettySize=auto;html=1;" edge="1" parent="1" source="q6Fosyw1V_CmT3SRMPMA-53" target="q6Fosyw1V_CmT3SRMPMA-68">
          <mxGeometry relative="1" as="geometry" />
        </mxCell>
        <mxCell id="q6Fosyw1V_CmT3SRMPMA-53" value="未登录/无网等" style="rounded=1;whiteSpace=wrap;html=1;" vertex="1" parent="1">
          <mxGeometry x="-1370" y="-70" width="120" height="60" as="geometry" />
        </mxCell>
        <mxCell id="q6Fosyw1V_CmT3SRMPMA-59" value="否" style="text;html=1;align=center;verticalAlign=middle;resizable=0;points=[];autosize=1;strokeColor=none;fillColor=none;" vertex="1" parent="1">
          <mxGeometry x="-550" y="450" width="40" height="30" as="geometry" />
        </mxCell>
        <mxCell id="q6Fosyw1V_CmT3SRMPMA-63" style="edgeStyle=orthogonalEdgeStyle;rounded=0;orthogonalLoop=1;jettySize=auto;html=1;entryX=0.5;entryY=0;entryDx=0;entryDy=0;" edge="1" parent="1" source="q6Fosyw1V_CmT3SRMPMA-60" target="q6Fosyw1V_CmT3SRMPMA-62">
          <mxGeometry relative="1" as="geometry" />
        </mxCell>
        <mxCell id="q6Fosyw1V_CmT3SRMPMA-60" value="客户端存在未上报事件？" style="rhombus;whiteSpace=wrap;html=1;" vertex="1" parent="1">
          <mxGeometry x="-890" y="670" width="290" height="110" as="geometry" />
        </mxCell>
        <mxCell id="q6Fosyw1V_CmT3SRMPMA-62" value="Push同步逻辑" style="rounded=0;whiteSpace=wrap;html=1;dashed=1;strokeWidth=3;strokeColor=default;fillColor=none;" vertex="1" parent="1">
          <mxGeometry x="-865" y="880" width="240" height="52.88" as="geometry" />
        </mxCell>
        <mxCell id="q6Fosyw1V_CmT3SRMPMA-64" value="是" style="text;html=1;align=center;verticalAlign=middle;resizable=0;points=[];autosize=1;strokeColor=none;fillColor=none;" vertex="1" parent="1">
          <mxGeometry x="-740" y="810" width="40" height="30" as="geometry" />
        </mxCell>
        <mxCell id="q6Fosyw1V_CmT3SRMPMA-66" style="edgeStyle=orthogonalEdgeStyle;rounded=0;orthogonalLoop=1;jettySize=auto;html=1;" edge="1" parent="1" source="q6Fosyw1V_CmT3SRMPMA-65" target="q6Fosyw1V_CmT3SRMPMA-62">
          <mxGeometry relative="1" as="geometry" />
        </mxCell>
        <mxCell id="q6Fosyw1V_CmT3SRMPMA-65" value="&lt;h1&gt;发生同步属性修改&lt;/h1&gt;" style="rounded=1;whiteSpace=wrap;html=1;" vertex="1" parent="1">
          <mxGeometry x="-1225" y="866.44" width="200" height="80" as="geometry" />
        </mxCell>
        <mxCell id="q6Fosyw1V_CmT3SRMPMA-67" value="无" style="text;html=1;align=center;verticalAlign=middle;resizable=0;points=[];autosize=1;strokeColor=none;fillColor=none;" vertex="1" parent="1">
          <mxGeometry x="-850" y="-135" width="40" height="30" as="geometry" />
        </mxCell>
        <mxCell id="q6Fosyw1V_CmT3SRMPMA-72" style="edgeStyle=orthogonalEdgeStyle;rounded=0;orthogonalLoop=1;jettySize=auto;html=1;" edge="1" parent="1" source="q6Fosyw1V_CmT3SRMPMA-68" target="q6Fosyw1V_CmT3SRMPMA-31">
          <mxGeometry relative="1" as="geometry">
            <Array as="points">
              <mxPoint x="-1310" y="380" />
              <mxPoint x="-745" y="380" />
            </Array>
          </mxGeometry>
        </mxCell>
        <mxCell id="q6Fosyw1V_CmT3SRMPMA-68" value="last_event_id保持端上不变" style="rounded=0;whiteSpace=wrap;html=1;" vertex="1" parent="1">
          <mxGeometry x="-1370" y="90" width="120" height="60" as="geometry" />
        </mxCell>
      </root>
    </mxGraphModel>
  </diagram>
</mxfile>
